<svg width="143" height="124" viewBox="0 0 143 124" fill="none" xmlns="http://www.w3.org/2000/svg">
<path d="M112.908 90.6288C123.065 90.6288 131.298 86.7041 131.298 81.8626C131.298 77.0212 123.065 73.0964 112.908 73.0964C102.752 73.0964 94.5181 77.0212 94.5181 81.8626C94.5181 86.7041 102.752 90.6288 112.908 90.6288Z" fill="#E0E0E0"/>
<path d="M85.097 116.758C80.1837 119.101 72.2187 119.101 67.3054 116.758C62.392 114.414 62.392 110.621 67.3054 108.278C72.2187 105.934 80.1837 105.951 85.097 108.278C90.0103 110.605 90.0236 114.418 85.097 116.758Z" fill="#E0E0E0"/>
<path d="M19.0163 86.8524L21.719 85.2933C21.719 85.2933 23.1451 78.9339 21.0209 70.8559C18.8966 62.7778 12.7699 56.7375 9.57529 58.0041C6.38064 59.2707 6.46375 61.6608 8.22563 64.0843C9.68832 66.0788 14.4321 70.9323 16.7126 76.5238C18.0711 79.8078 18.8506 83.3023 19.0163 86.8524Z" fill="#76517B"/>
<path opacity="0.1" d="M19.0163 86.8524L21.719 85.2933C21.719 85.2933 23.1451 78.9339 21.0209 70.8559C18.8966 62.7778 12.7699 56.7375 9.57529 58.0041C6.38064 59.2707 6.46375 61.6608 8.22563 64.0843C9.68832 66.0788 14.4321 70.9323 16.7126 76.5238C18.0711 79.8078 18.8506 83.3023 19.0163 86.8524Z" fill="black"/>
<path d="M20.4558 86.1875H20.4325C20.3895 86.181 20.3508 86.1578 20.3247 86.123C20.2986 86.0882 20.2872 86.0445 20.2929 86.0014C22.1379 72.7042 13.8969 61.9534 10.1471 59.7095C10.1254 59.7001 10.1059 59.6861 10.09 59.6686C10.0741 59.6511 10.0621 59.6303 10.0549 59.6078C10.0476 59.5852 10.0453 59.5614 10.048 59.5379C10.0507 59.5144 10.0584 59.4917 10.0706 59.4714C10.0827 59.4511 10.0991 59.4336 10.1186 59.4202C10.1381 59.4067 10.1602 59.3975 10.1835 59.3933C10.2068 59.3891 10.2308 59.3899 10.2537 59.3957C10.2767 59.4015 10.2981 59.4121 10.3167 59.4269C14.123 61.7007 22.4903 72.5945 20.622 86.0479C20.615 86.087 20.5945 86.1223 20.5642 86.1478C20.5338 86.1733 20.4954 86.1874 20.4558 86.1875Z" fill="white"/>
<path d="M19.0164 86.8524L14.9674 89.1794C14.1217 88.7568 13.2056 88.4931 12.2647 88.4015C10.5427 88.1855 9.39586 86.5233 9.5654 85.2833C9.67842 84.4456 9.94769 83.4915 9.81804 82.6438C9.70502 81.8859 8.97035 81.2044 8.28554 80.9385C7.70272 80.7564 7.09424 80.6699 6.48377 80.6825C5.50975 80.636 4.48919 80.5263 3.66808 80.0176C2.84698 79.509 2.24196 78.4918 2.5079 77.551C2.68674 77.0641 2.97705 76.6258 3.3556 76.2712C3.73263 75.9156 4.03839 75.4913 4.25648 75.0212C4.61551 74.0838 3.98057 73.4854 3.22595 73.0499C0.566509 71.5207 -0.630241 70.314 0.327159 69.1571C1.28456 68.0003 3.91408 67.495 6.61009 68.9111C9.3061 70.3273 11.5434 68.8081 13.3219 69.1073C16.1076 69.5727 16.2705 71.5407 15.9248 73.2494C15.5791 74.9581 19.0264 75.6861 19.8807 77.7372C20.5223 79.2265 21.0475 84.1198 19.0164 86.8524Z" fill="#76517B"/>
<path d="M17.6668 87.7965C17.6239 87.7965 17.5826 87.7799 17.5516 87.7502C17.5206 87.7204 17.5023 87.6799 17.5006 87.6369C17.1682 78.1461 5.00454 69.8685 2.13567 69.3932C2.11405 69.3899 2.09328 69.3824 2.07455 69.3712C2.05583 69.3599 2.03951 69.345 2.02654 69.3274C2.01357 69.3098 2.0042 69.2898 1.99897 69.2686C1.99374 69.2474 1.99275 69.2253 1.99605 69.2037C2.00416 69.1604 2.02883 69.1219 2.06483 69.0965C2.10082 69.071 2.14531 69.0606 2.18886 69.0674C5.21065 69.566 17.4973 77.7804 17.833 87.6236C17.8339 87.6455 17.8305 87.6673 17.823 87.6878C17.8154 87.7083 17.8039 87.7271 17.7891 87.7432C17.7743 87.7592 17.7564 87.7722 17.7366 87.7814C17.7167 87.7905 17.6953 87.7957 17.6735 87.7965H17.6668Z" fill="white"/>
<path d="M69.8317 104.94C69.6988 103.278 68.4156 100.439 66.5074 98.4177C64.5993 96.3965 61.5675 95.4258 59.6926 96.2369C57.9474 96.9949 58.333 99.3352 60.6367 100.721C62.9405 102.108 66.3711 103.803 67.5479 106.426L69.8218 109.574L69.8317 104.94Z" fill="#76517B"/>
<path opacity="0.1" d="M69.8317 104.94C69.6988 103.278 68.4156 100.439 66.5074 98.4177C64.5993 96.3965 61.5675 95.4258 59.6926 96.2369C57.9474 96.9949 58.333 99.3352 60.6367 100.721C62.9405 102.108 66.3711 103.803 67.5479 106.426L69.8218 109.574L69.8317 104.94Z" fill="black"/>
<path d="M69.8317 107.985H69.865C69.8945 107.981 69.9229 107.971 69.9485 107.956C69.9742 107.941 69.9966 107.921 70.0146 107.897C70.0325 107.873 70.0455 107.846 70.0529 107.817C70.0603 107.789 70.062 107.759 70.0578 107.729C69.23 101.569 62.9704 97.2841 60.4804 96.812C60.4512 96.8062 60.4211 96.8063 60.3918 96.8122C60.3626 96.8181 60.3348 96.8297 60.3101 96.8464C60.2854 96.8631 60.2642 96.8845 60.2478 96.9094C60.2314 96.9343 60.2201 96.9622 60.2145 96.9915C60.2087 97.0208 60.2088 97.0509 60.2147 97.0801C60.2206 97.1094 60.2322 97.1371 60.2489 97.1619C60.2656 97.1866 60.287 97.2078 60.3119 97.2242C60.3368 97.2406 60.3647 97.2519 60.394 97.2575C62.721 97.6996 68.8178 101.938 69.6057 107.789C69.6136 107.843 69.6408 107.893 69.6823 107.929C69.7238 107.965 69.7768 107.985 69.8317 107.985Z" fill="white"/>
<path d="M69.5856 111.821C69.2531 110.907 67.9766 109.454 66.0252 108.331C63.8678 107.084 61.2316 106.642 60.5468 105.595C59.7257 104.332 60.7363 102.999 62.8538 103.088C64.9714 103.178 68.8974 105.748 69.8349 110.013L69.5856 111.821Z" fill="#76517B"/>
<path d="M69.7452 110.924H69.7884C69.818 110.918 69.8463 110.907 69.8714 110.89C69.8966 110.873 69.9182 110.852 69.9349 110.827C69.9516 110.802 69.9632 110.774 69.9688 110.744C69.9745 110.714 69.9742 110.684 69.9679 110.654C69.3396 107.496 64.7621 104.225 61.8034 104.089C61.7438 104.089 61.6862 104.111 61.6419 104.151C61.5976 104.191 61.5699 104.246 61.5641 104.305C61.5622 104.366 61.5841 104.425 61.6251 104.469C61.6661 104.514 61.7229 104.541 61.7835 104.544C64.5294 104.671 68.9407 107.819 69.5225 110.744C69.5332 110.795 69.5612 110.841 69.6018 110.874C69.6424 110.906 69.6931 110.924 69.7452 110.924Z" fill="white"/>
<path d="M17.9935 95.274C17.8016 95.1454 17.6524 94.9626 17.5647 94.7489C17.4771 94.5352 17.4551 94.3003 17.5015 94.074L29.2895 41.9024C29.4313 41.3979 29.7514 40.962 30.1903 40.6757L100.333 0.185684C100.548 0.0722656 100.786 0.0110477 101.028 0.00700438C101.271 0.00296104 101.511 0.0562064 101.729 0.162414C101.918 0.291846 102.065 0.474119 102.15 0.686405C102.236 0.898692 102.257 1.13156 102.211 1.35584L90.4201 53.5275C90.2779 54.0327 89.9564 54.4688 89.5158 54.7541L19.3897 95.2441C19.1757 95.3586 18.9378 95.421 18.6952 95.4262C18.4526 95.4314 18.2121 95.3792 17.9935 95.274Z" fill="#F0F0F0"/>
<path d="M30.6392 42.6736L18.8512 94.8652C18.7515 95.3106 18.9908 95.4901 19.3898 95.2607L89.5325 54.7707C89.9731 54.4855 90.2946 54.0493 90.4368 53.5441L102.211 1.35584C102.311 0.907057 102.072 0.730869 101.673 0.960246L31.5301 41.4503C31.0958 41.7377 30.7795 42.172 30.6392 42.6736Z" fill="#E6E6E6"/>
<path d="M103.066 0.933652C102.847 0.827954 102.607 0.775276 102.365 0.779897C102.122 0.784518 101.884 0.846308 101.67 0.960247L31.5268 41.4503C31.3234 41.582 31.1598 41.7668 31.0537 41.9848C30.9477 42.2027 30.9032 42.4455 30.9251 42.6869L40.1567 107.308C40.2018 107.553 40.2952 107.786 40.4317 107.995C40.5681 108.203 40.7447 108.382 40.9512 108.521C41.1688 108.628 41.4087 108.681 41.6509 108.676C41.8931 108.672 42.1307 108.609 42.3441 108.495L112.474 68.0148C112.678 67.8828 112.842 67.6974 112.948 67.4788C113.054 67.2602 113.098 67.0167 113.075 66.7748L103.874 2.14702C103.827 1.90096 103.732 1.66675 103.593 1.4583C103.454 1.24986 103.275 1.07144 103.066 0.933652Z" fill="#F0F0F0"/>
<path d="M32.288 43.4681L41.5063 108.089C41.5081 108.186 41.5366 108.28 41.5886 108.361C41.6405 108.442 41.714 108.507 41.8007 108.549C41.8875 108.591 41.9841 108.608 42.0801 108.599C42.176 108.589 42.2673 108.553 42.344 108.495L112.474 68.0148C112.678 67.8828 112.841 67.6974 112.948 67.4788C113.054 67.2602 113.098 67.0167 113.075 66.7748L103.874 2.14703C103.872 2.05038 103.844 1.95597 103.793 1.87433C103.741 1.79268 103.667 1.727 103.581 1.6846C103.494 1.64221 103.397 1.62476 103.301 1.63422C103.204 1.64367 103.113 1.67965 103.036 1.73814L32.8931 42.2281C32.6884 42.3597 32.5238 42.5449 32.4171 42.7635C32.3105 42.9822 32.2658 43.2259 32.288 43.4681Z" fill="#FAFAFA"/>
<path d="M18.9143 94.5726L36.8655 84.2041L37.3875 87.9606L29.1565 92.7143C29.1565 92.7143 26.9624 93.4922 26.0915 93.7116C25.2205 93.931 18.9143 94.5726 18.9143 94.5726Z" fill="#E0E0E0"/>
<path d="M37.3975 87.9639L40.0902 106.846L29.1665 92.7177L37.3975 87.9639Z" fill="#E6E6E6"/>
<path d="M39.7677 107.474L29.9776 94.7588C29.8151 94.5692 29.6097 94.4211 29.3784 94.3268C29.1471 94.2326 28.8967 94.1949 28.6479 94.2169L19.4928 95.5466C18.9772 95.6018 18.4567 95.5072 17.9935 95.2741C17.6212 95.0613 17.6844 94.8153 18.1331 94.7289L28.6546 92.7044C28.9012 92.6672 29.1533 92.6946 29.3863 92.7837C29.6193 92.8728 29.8253 93.0207 29.9843 93.213L41.1307 108.239C41.4033 108.608 41.3235 108.731 40.9512 108.515C40.5024 108.235 40.1026 107.884 39.7677 107.474Z" fill="#E0E0E0"/>
<path d="M102.228 1.09987C102.227 0.912556 102.179 0.728431 102.09 0.563768C102.001 0.399105 101.872 0.258974 101.716 0.155764C101.497 0.0510949 101.257 -0.00100881 101.015 0.00360861C100.772 0.00822603 100.534 0.0694373 100.32 0.182359L30.177 40.6724C29.9631 40.8064 29.7769 40.9802 29.6285 41.1843C29.4637 41.3966 29.3428 41.6396 29.2727 41.899L27.6106 49.269L28.9603 50.0436L100.549 8.72249L102.211 1.35584C102.227 1.27148 102.234 1.18566 102.231 1.09987H102.228Z" fill="#919379"/>
<path opacity="0.2" d="M102.211 1.35584C102.311 0.907057 102.072 0.730869 101.673 0.960246L31.5298 41.4503C31.0918 41.736 30.7718 42.1705 30.6289 42.6736L28.9668 50.0436L100.549 8.72249L102.211 1.35584Z" fill="black"/>
<path opacity="0.1" d="M30.9914 41.9622C30.8263 42.1726 30.7064 42.4148 30.639 42.6736L28.9769 50.0436L27.6272 49.2657L29.2893 41.8957C29.3594 41.6362 29.4803 41.3933 29.645 41.181L30.9914 41.9622Z" fill="black"/>
<path opacity="0.4" d="M102.228 1.09654C102.195 0.847218 101.979 0.764111 101.67 0.960245L31.5268 41.4469C31.3114 41.5804 31.1249 41.7556 30.9783 41.9622L29.6287 41.181C29.7771 40.9769 29.9633 40.8031 30.1772 40.669L100.32 0.179033C100.535 0.0661109 100.772 0.00489961 101.015 0.000282188C101.257 -0.00433523 101.497 0.0477697 101.716 0.152439C101.872 0.255649 102.001 0.39578 102.09 0.560443C102.18 0.725106 102.227 0.909231 102.228 1.09654Z" fill="white"/>
<path d="M103.943 2.76534L103.873 2.14702C103.868 2.11677 103.862 2.08681 103.854 2.05727C103.855 2.04846 103.855 2.03948 103.854 2.03067C103.74 1.58333 103.467 1.19301 103.086 0.933652C102.867 0.827954 102.627 0.775276 102.384 0.779897C102.142 0.784518 101.904 0.846308 101.689 0.960247L31.5466 41.4503C31.3343 41.5818 31.1663 41.774 31.0646 42.0021C30.9607 42.2145 30.9192 42.4519 30.9449 42.6869L32.2746 51.9451L33.6243 52.7263L105.18 11.4085L103.943 2.76534Z" fill="#919379"/>
<path opacity="0.1" d="M33.6111 52.723L32.2614 51.9418L30.9317 42.6836C30.906 42.4486 30.9475 42.2111 31.0514 41.9988L32.4044 42.7766C32.2981 42.9883 32.2554 43.2261 32.2814 43.4615L33.6111 52.723Z" fill="black"/>
<path opacity="0.4" d="M103.834 2.03067C103.815 1.94692 103.775 1.86931 103.718 1.80497C103.661 1.74064 103.589 1.69164 103.508 1.66251C103.427 1.63337 103.34 1.62503 103.256 1.63824C103.171 1.65146 103.091 1.68581 103.023 1.73813L32.8797 42.2281C32.6666 42.3587 32.4984 42.5512 32.3977 42.78L31.0713 42.0021C31.1739 41.7737 31.3415 41.5806 31.5533 41.4469L101.696 0.960247C101.91 0.846308 102.148 0.784518 102.391 0.779897C102.634 0.775276 102.874 0.827954 103.092 0.933652C103.465 1.19679 103.728 1.58689 103.834 2.03067Z" fill="white"/>
<path d="M52.2306 97.3817L51.3929 91.4943C51.3917 91.4177 51.3695 91.3428 51.3287 91.2779C51.2878 91.213 51.23 91.1605 51.1614 91.1262C51.0928 91.0919 51.0161 91.0771 50.9397 91.0834C50.8633 91.0897 50.7901 91.1169 50.728 91.1619L44.6146 94.6923C44.4499 94.7977 44.3176 94.9467 44.2325 95.1228C44.1474 95.2988 44.1128 95.495 44.1326 95.6896L44.967 101.59C44.967 101.667 44.9885 101.743 45.0291 101.809C45.0696 101.874 45.1277 101.927 45.1967 101.962C45.2657 101.996 45.343 102.011 45.4199 102.004C45.4967 101.997 45.5701 101.969 45.6319 101.923L51.7453 98.3923C51.9131 98.2865 52.0476 98.1356 52.1335 97.9568C52.2193 97.7781 52.253 97.5787 52.2306 97.3817Z" fill="#919379"/>
<path d="M61.6849 91.9298L60.8439 86.0458C60.8439 85.9686 60.8224 85.893 60.7818 85.8273C60.7412 85.7617 60.6832 85.7086 60.6142 85.6741C60.5451 85.6396 60.4679 85.625 60.391 85.6319C60.3142 85.6389 60.2407 85.667 60.179 85.7134L54.0656 89.2404C53.9012 89.3461 53.7691 89.4952 53.684 89.6711C53.599 89.8471 53.5642 90.0432 53.5836 90.2377L54.4246 96.1251C54.4246 96.2022 54.4461 96.2779 54.4867 96.3435C54.5273 96.4092 54.5853 96.4622 54.6543 96.4967C54.7234 96.5313 54.8006 96.5459 54.8775 96.5389C54.9544 96.532 55.0278 96.5038 55.0895 96.4575L61.2029 92.9271C61.3679 92.822 61.5004 92.673 61.5855 92.4969C61.6706 92.3207 61.7051 92.1244 61.6849 91.9298Z" fill="#EBEBEB"/>
<path d="M71.1392 86.478L70.2981 80.5939C70.2981 80.5168 70.2766 80.4411 70.2361 80.3755C70.1955 80.3098 70.1374 80.2568 70.0684 80.2223C69.9994 80.1877 69.9221 80.1731 69.8453 80.1801C69.7684 80.187 69.695 80.2152 69.6333 80.2615L63.5165 83.7952C63.3521 83.9009 63.22 84.0499 63.135 84.2259C63.0499 84.4019 63.0151 84.598 63.0345 84.7925L63.8756 90.6799C63.8756 90.757 63.8971 90.8327 63.9376 90.8983C63.9782 90.964 64.0363 91.017 64.1053 91.0515C64.1743 91.086 64.2516 91.1007 64.3284 91.0937C64.4053 91.0868 64.4787 91.0586 64.5404 91.0123L70.6538 87.4819C70.8205 87.3767 70.9544 87.2268 71.0402 87.0494C71.126 86.8719 71.1603 86.6739 71.1392 86.478Z" fill="#EBEBEB"/>
<path d="M80.6035 81.0294L79.7624 75.1421C79.7624 75.0649 79.741 74.9893 79.7004 74.9236C79.6598 74.858 79.6018 74.8049 79.5327 74.7704C79.4637 74.7359 79.3865 74.7213 79.3096 74.7282C79.2327 74.7351 79.1593 74.7633 79.0976 74.8096L72.9576 78.3467C72.7926 78.4518 72.6601 78.6008 72.575 78.7769C72.4899 78.953 72.4554 79.1494 72.4756 79.344L73.3166 85.228C73.3166 85.3052 73.3381 85.3808 73.3787 85.4465C73.4193 85.5121 73.4773 85.5652 73.5463 85.5997C73.6154 85.6342 73.6926 85.6488 73.7695 85.6419C73.8463 85.6349 73.9197 85.6067 73.9815 85.5604L80.0949 82.0334C80.2653 81.9306 80.4034 81.782 80.4934 81.6044C80.5833 81.4269 80.6215 81.2276 80.6035 81.0294Z" fill="#EBEBEB"/>
<path d="M90.0478 75.5776L89.2068 69.6769C89.2068 69.5997 89.1853 69.5241 89.1447 69.4585C89.1042 69.3928 89.0461 69.3398 88.9771 69.3052C88.9081 69.2707 88.8308 69.2561 88.7539 69.2631C88.6771 69.27 88.6037 69.2982 88.5419 69.3445L82.4285 72.8749C82.2635 72.98 82.1311 73.129 82.0459 73.3051C81.9608 73.4812 81.9264 73.6776 81.9465 73.8722L82.7876 79.7562C82.7876 79.8334 82.8091 79.909 82.8496 79.9747C82.8902 80.0403 82.9482 80.0934 83.0173 80.1279C83.0863 80.1624 83.1636 80.177 83.2404 80.1701C83.3173 80.1631 83.3907 80.1349 83.4524 80.0886L89.5791 76.5682C89.7401 76.4614 89.8688 76.3127 89.9514 76.1381C90.034 75.9635 90.0673 75.7697 90.0478 75.5776Z" fill="#EBEBEB"/>
<path d="M99.5019 70.1257L98.6609 64.2384C98.6609 64.1612 98.6394 64.0855 98.5988 64.0199C98.5583 63.9542 98.5002 63.9012 98.4312 63.8667C98.3622 63.8322 98.2849 63.8176 98.208 63.8245C98.1312 63.8314 98.0578 63.8596 97.996 63.9059L91.8826 67.4363C91.7176 67.5414 91.5852 67.6904 91.5 67.8665C91.4149 68.0427 91.3805 68.239 91.4006 68.4336L92.2383 74.3309C92.2383 74.4081 92.2598 74.4838 92.3004 74.5494C92.341 74.615 92.399 74.6681 92.468 74.7026C92.5371 74.7371 92.6143 74.7517 92.6912 74.7448C92.7681 74.7379 92.8415 74.7097 92.9032 74.6634L99.0166 71.133C99.1836 71.0272 99.3175 70.8768 99.4033 70.6987C99.4891 70.5207 99.5233 70.3222 99.5019 70.1257Z" fill="#EBEBEB"/>
<path d="M108.956 64.6905L108.115 58.8031C108.115 58.7259 108.094 58.6503 108.053 58.5847C108.013 58.519 107.955 58.466 107.886 58.4314C107.817 58.3969 107.739 58.3823 107.662 58.3893C107.586 58.3962 107.512 58.4244 107.45 58.4707L101.337 62.0011C101.172 62.1065 101.04 62.2555 100.955 62.4316C100.87 62.6076 100.835 62.8038 100.855 62.9984L101.693 68.8857C101.694 68.9624 101.716 69.0373 101.757 69.1022C101.798 69.1671 101.856 69.2195 101.924 69.2538C101.993 69.2881 102.069 69.3029 102.146 69.2966C102.222 69.2903 102.296 69.2632 102.358 69.2182L108.471 65.6877C108.636 65.5828 108.769 65.434 108.855 65.2579C108.941 65.0818 108.976 64.8853 108.956 64.6905Z" fill="#EBEBEB"/>
<path d="M50.5882 85.863L49.7471 79.9823C49.7459 79.9056 49.7237 79.8307 49.6829 79.7658C49.6421 79.7009 49.5842 79.6485 49.5156 79.6142C49.4471 79.5799 49.3704 79.5651 49.294 79.5714C49.2175 79.5776 49.1443 79.6048 49.0823 79.6498L42.9689 83.1802C42.8042 83.2856 42.6719 83.4346 42.5868 83.6107C42.5017 83.7868 42.4671 83.983 42.4869 84.1775L43.3246 90.0649C43.3258 90.1415 43.348 90.2164 43.3888 90.2813C43.4296 90.3462 43.4875 90.3987 43.5561 90.433C43.6246 90.4673 43.7013 90.4821 43.7777 90.4758C43.8542 90.4695 43.9274 90.4423 43.9894 90.3973L50.1028 86.8669C50.2682 86.7603 50.4009 86.6102 50.4866 86.4331C50.5722 86.256 50.6073 86.0587 50.5882 85.863Z" fill="#919379"/>
<path d="M60.0425 80.4111L59.2015 74.5238C59.2003 74.4471 59.1781 74.3722 59.1372 74.3073C59.0964 74.2424 59.0386 74.19 58.97 74.1557C58.9014 74.1214 58.8247 74.1066 58.7483 74.1129C58.6719 74.1192 58.5987 74.1463 58.5366 74.1913L52.4232 77.7218C52.2585 77.8271 52.1262 77.9761 52.0411 78.1522C51.956 78.3283 51.9214 78.5245 51.9412 78.719L52.7789 84.6064C52.7801 84.683 52.8023 84.7579 52.8432 84.8228C52.884 84.8877 52.9418 84.9402 53.0104 84.9745C53.079 85.0088 53.1557 85.0236 53.2321 85.0173C53.3085 85.011 53.3817 84.9839 53.4438 84.9388L59.5572 81.4084C59.7214 81.3024 59.8535 81.1533 59.9391 80.9775C60.0247 80.8017 60.0604 80.6058 60.0425 80.4111Z" fill="#EBEBEB"/>
<path d="M69.4969 74.9592L68.6558 69.0719C68.6546 68.9952 68.6324 68.9204 68.5916 68.8554C68.5508 68.7905 68.4929 68.7381 68.4243 68.7038C68.3558 68.6695 68.2791 68.6547 68.2027 68.661C68.1262 68.6673 68.053 68.6944 67.991 68.7395L61.8776 72.2699C61.7128 72.3753 61.5806 72.5243 61.4955 72.7003C61.4104 72.8764 61.3758 73.0726 61.3955 73.2672L62.2333 79.1545C62.2345 79.2312 62.2567 79.306 62.2975 79.3709C62.3383 79.4358 62.3962 79.4883 62.4648 79.5226C62.5333 79.5569 62.61 79.5717 62.6864 79.5654C62.7629 79.5591 62.8361 79.532 62.8981 79.4869L69.0115 75.9565C69.1758 75.8505 69.3079 75.7015 69.3934 75.5256C69.479 75.3498 69.5148 75.1539 69.4969 74.9592Z" fill="#EBEBEB"/>
<path d="M78.9412 69.5074L78.1002 63.6201C78.099 63.5434 78.0767 63.4685 78.0359 63.4036C77.9951 63.3387 77.9373 63.2862 77.8687 63.252C77.8001 63.2177 77.7234 63.2029 77.647 63.2091C77.5706 63.2154 77.4974 63.2426 77.4353 63.2876L71.3286 66.8247C71.1641 66.9303 71.032 67.0794 70.947 67.2554C70.8619 67.4314 70.8272 67.6275 70.8465 67.822L71.6843 73.7093C71.6855 73.786 71.7077 73.8608 71.7485 73.9258C71.7893 73.9907 71.8472 74.0431 71.9157 74.0774C71.9843 74.1117 72.061 74.1265 72.1374 74.1202C72.2138 74.1139 72.2871 74.0868 72.3491 74.0417L78.4625 70.5113C78.6269 70.4042 78.7585 70.2538 78.843 70.0767C78.9275 69.8995 78.9614 69.7026 78.9412 69.5074Z" fill="#EBEBEB"/>
<path d="M88.4055 64.0555L87.5645 58.1715C87.5645 58.0943 87.543 58.0187 87.5024 57.953C87.4619 57.8874 87.4038 57.8343 87.3348 57.7998C87.2658 57.7653 87.1885 57.7507 87.1116 57.7576C87.0348 57.7646 86.9614 57.7928 86.8996 57.8391L80.7829 61.3662C80.6184 61.4718 80.4864 61.6209 80.4013 61.7969C80.3163 61.9729 80.2815 62.1689 80.3009 62.3635L81.1386 68.2508C81.1398 68.3275 81.162 68.4023 81.2028 68.4672C81.2437 68.5321 81.3015 68.5846 81.3701 68.6189C81.4387 68.6532 81.5154 68.668 81.5918 68.6617C81.6682 68.6554 81.7414 68.6283 81.8035 68.5832L87.9169 65.0462C88.0809 64.9413 88.2132 64.7936 88.2994 64.619C88.3855 64.4444 88.4222 64.2495 88.4055 64.0555Z" fill="#EBEBEB"/>
<path d="M97.8597 58.6037L97.0187 52.723C97.0187 52.6458 96.9972 52.5702 96.9566 52.5045C96.916 52.4389 96.858 52.3858 96.789 52.3513C96.7199 52.3168 96.6427 52.3022 96.5658 52.3091C96.4889 52.316 96.4155 52.3442 96.3538 52.3905L90.2437 55.9243C90.0787 56.0294 89.9463 56.1783 89.8611 56.3545C89.776 56.5306 89.7416 56.727 89.7617 56.9216L90.5994 62.8056C90.6006 62.8823 90.6229 62.9571 90.6637 63.022C90.7045 63.0869 90.7623 63.1394 90.8309 63.1737C90.8995 63.208 90.9762 63.2228 91.0526 63.2165C91.129 63.2102 91.2022 63.1831 91.2643 63.138L97.3777 59.6076C97.5427 59.5009 97.675 59.3506 97.76 59.1735C97.8451 58.9964 97.8796 58.7992 97.8597 58.6037Z" fill="#EBEBEB"/>
<path d="M107.314 53.1551L106.473 47.2678C106.473 47.1906 106.452 47.115 106.411 47.0493C106.371 46.9837 106.312 46.9306 106.243 46.8961C106.174 46.8616 106.097 46.847 106.02 46.8539C105.943 46.8609 105.87 46.8891 105.808 46.9354L99.6916 50.4658C99.5275 50.5716 99.3959 50.7208 99.3114 50.8968C99.2269 51.0728 99.1928 51.2688 99.2129 51.4631L100.051 57.3471C100.052 57.4237 100.074 57.4986 100.115 57.5635C100.156 57.6284 100.214 57.6809 100.282 57.7152C100.351 57.7495 100.427 57.7643 100.504 57.758C100.58 57.7517 100.653 57.7245 100.715 57.6795L106.829 54.1524C106.993 54.0461 107.125 53.897 107.21 53.7213C107.296 53.5455 107.332 53.3498 107.314 53.1551Z" fill="#EBEBEB"/>
<path d="M48.9428 74.331L48.105 68.4436C48.1038 68.3669 48.0816 68.2921 48.0408 68.2272C48 68.1623 47.9421 68.1098 47.8735 68.0755C47.805 68.0412 47.7283 68.0264 47.6519 68.0327C47.5755 68.039 47.5022 68.0661 47.4402 68.1112L41.3201 71.6715C41.1562 71.7777 41.0246 71.9269 40.9396 72.1027C40.8546 72.2786 40.8195 72.4744 40.8381 72.6688L41.6792 78.5528C41.6792 78.63 41.7006 78.7056 41.7412 78.7713C41.7818 78.8369 41.8398 78.89 41.9089 78.9245C41.9779 78.959 42.0552 78.9736 42.132 78.9667C42.2089 78.9597 42.2823 78.9316 42.344 78.8853L48.4607 75.3282C48.6252 75.2226 48.7572 75.0735 48.8423 74.8975C48.9274 74.7215 48.9621 74.5255 48.9428 74.331Z" fill="#919379"/>
<path d="M58.3971 68.8924L57.5593 63.005C57.5581 62.9284 57.5359 62.8535 57.4951 62.7886C57.4543 62.7237 57.3964 62.6712 57.3278 62.6369C57.2593 62.6027 57.1826 62.5879 57.1062 62.5941C57.0297 62.6004 56.9565 62.6276 56.8945 62.6726L50.7811 66.203C50.6172 66.3092 50.4855 66.4584 50.4005 66.6342C50.3155 66.8101 50.2804 67.0059 50.299 67.2003L51.1401 73.0877C51.1413 73.1643 51.1635 73.2392 51.2043 73.3041C51.2452 73.369 51.303 73.4215 51.3716 73.4557C51.4402 73.49 51.5168 73.5048 51.5933 73.4986C51.6697 73.4923 51.7429 73.4651 51.805 73.4201L57.9184 69.8897C58.0825 69.7839 58.2141 69.6347 58.2986 69.4586C58.3831 69.2826 58.4171 69.0866 58.3971 68.8924Z" fill="#EBEBEB"/>
<path d="M67.8512 63.4405L67.0135 57.5532C67.0123 57.4765 66.9901 57.4017 66.9493 57.3367C66.9084 57.2718 66.8506 57.2194 66.782 57.1851C66.7134 57.1508 66.6367 57.136 66.5603 57.1423C66.4839 57.1486 66.4107 57.1757 66.3486 57.2208L60.2352 60.7512C60.0716 60.8576 59.9402 61.0068 59.8552 61.1826C59.7702 61.3584 59.735 61.5541 59.7532 61.7485L60.5943 67.6358C60.5955 67.7125 60.6177 67.7873 60.6585 67.8522C60.6993 67.9171 60.7572 67.9696 60.8258 68.0039C60.8943 68.0382 60.971 68.053 61.0474 68.0467C61.1239 68.0404 61.1971 68.0133 61.2591 67.9682L67.3725 64.4378C67.5366 64.332 67.6682 64.1828 67.7527 64.0068C67.8372 63.8308 67.8713 63.6348 67.8512 63.4405Z" fill="#EBEBEB"/>
<path d="M77.3056 57.9887L76.4678 52.1013C76.4666 52.0247 76.4444 51.9498 76.4036 51.8849C76.3628 51.82 76.3049 51.7675 76.2364 51.7332C76.1678 51.6989 76.0911 51.6841 76.0147 51.6904C75.9383 51.6967 75.865 51.7239 75.803 51.7689L69.6896 55.2993C69.5259 55.4058 69.3945 55.555 69.3096 55.7308C69.2246 55.9065 69.1893 56.1022 69.2076 56.2966L70.0486 62.1839C70.0498 62.2606 70.072 62.3355 70.1129 62.4004C70.1537 62.4653 70.2115 62.5177 70.2801 62.552C70.3487 62.5863 70.4254 62.6011 70.5018 62.5948C70.5782 62.5886 70.6514 62.5614 70.7135 62.5164L76.8269 58.986C76.991 58.8802 77.1226 58.731 77.2071 58.5549C77.2916 58.3789 77.3257 58.1829 77.3056 57.9887Z" fill="#EBEBEB"/>
<path d="M86.7599 52.5368L85.9222 46.6495C85.921 46.5728 85.8988 46.4979 85.8579 46.433C85.8171 46.3681 85.7593 46.3157 85.6907 46.2814C85.6221 46.2471 85.5454 46.2323 85.469 46.2386C85.3926 46.2449 85.3194 46.272 85.2573 46.317L79.1439 49.8474C78.9803 49.9539 78.8489 50.1031 78.7639 50.2789C78.6789 50.4547 78.6437 50.6504 78.6619 50.8447L79.503 56.7321C79.5042 56.8087 79.5264 56.8836 79.5672 56.9485C79.608 57.0134 79.6659 57.0659 79.7344 57.1002C79.803 57.1345 79.8797 57.1493 79.9561 57.143C80.0325 57.1367 80.1058 57.1095 80.1678 57.0645L86.2812 53.5341C86.4453 53.4283 86.5769 53.2791 86.6614 53.1031C86.7459 52.927 86.78 52.731 86.7599 52.5368Z" fill="#EBEBEB"/>
<path d="M96.2276 47.0716L95.3899 41.1843C95.3887 41.1076 95.3664 41.0328 95.3256 40.9679C95.2848 40.903 95.2269 40.8505 95.1584 40.8162C95.0898 40.7819 95.0131 40.7671 94.9367 40.7734C94.8603 40.7797 94.7871 40.8068 94.725 40.8519L88.5817 44.4122C88.418 44.5187 88.2866 44.6679 88.2016 44.8437C88.1167 45.0194 88.0814 45.2151 88.0997 45.4095L88.9407 51.2968C88.9419 51.3735 88.9641 51.4484 89.0049 51.5133C89.0458 51.5782 89.1036 51.6306 89.1722 51.6649C89.2408 51.6992 89.3175 51.714 89.3939 51.7077C89.4703 51.7014 89.5435 51.6743 89.6056 51.6293L95.7323 48.0689C95.8997 47.9655 96.0349 47.8173 96.1224 47.6411C96.2099 47.4648 96.2464 47.2675 96.2276 47.0716Z" fill="#EBEBEB"/>
<path d="M105.669 41.6331L104.831 35.7491C104.83 35.6724 104.807 35.5975 104.767 35.5326C104.726 35.4677 104.668 35.4153 104.599 35.381C104.531 35.3467 104.454 35.3319 104.378 35.3382C104.301 35.3445 104.228 35.3716 104.166 35.4166L98.0526 38.9437C97.8886 39.0499 97.757 39.1991 97.672 39.3749C97.587 39.5508 97.5519 39.7466 97.5705 39.941L98.4116 45.8284C98.4128 45.905 98.435 45.9799 98.4758 46.0448C98.5166 46.1097 98.5745 46.1622 98.6431 46.1965C98.7117 46.2308 98.7883 46.2456 98.8647 46.2393C98.9412 46.233 99.0144 46.2058 99.0764 46.1608L105.203 42.6237C105.364 42.5171 105.492 42.3683 105.575 42.1936C105.657 42.0189 105.689 41.825 105.669 41.6331Z" fill="#EBEBEB"/>
<path d="M47.3004 62.8222L46.4593 56.9382C46.4593 56.861 46.4379 56.7854 46.3973 56.7197C46.3567 56.6541 46.2987 56.601 46.2296 56.5665C46.1606 56.532 46.0834 56.5174 46.0065 56.5243C45.9296 56.5313 45.8562 56.5594 45.7945 56.6058L39.6811 60.1328C39.5166 60.2385 39.3846 60.3876 39.2995 60.5635C39.2145 60.7395 39.1797 60.9356 39.1991 61.1301L40.0468 67.0175C40.0468 67.0946 40.0683 67.1703 40.1088 67.2359C40.1494 67.3016 40.2074 67.3546 40.2765 67.3891C40.3455 67.4236 40.4228 67.4383 40.4996 67.4313C40.5765 67.4244 40.6499 67.3962 40.7116 67.3499L46.825 63.8195C46.9888 63.7135 47.1199 63.5642 47.2039 63.3881C47.2878 63.2121 47.3212 63.0161 47.3004 62.8222Z" fill="#919379"/>
<path d="M56.7549 57.377L55.9138 51.493C55.9138 51.4158 55.8923 51.3402 55.8518 51.2745C55.8112 51.2089 55.7531 51.1558 55.6841 51.1213C55.6151 51.0868 55.5378 51.0722 55.461 51.0791C55.3841 51.0861 55.3107 51.1143 55.249 51.1606L49.1356 54.691C48.9706 54.7961 48.8381 54.945 48.753 55.1212C48.6678 55.2973 48.6334 55.4937 48.6536 55.6883L49.4946 61.5723C49.4946 61.6494 49.5161 61.7251 49.5567 61.7907C49.5972 61.8564 49.6553 61.9094 49.7243 61.9439C49.7933 61.9785 49.8706 61.9931 49.9475 61.9861C50.0243 61.9792 50.0977 61.951 50.1595 61.9047L56.2729 58.3743C56.4379 58.2692 56.5703 58.1202 56.6555 57.9441C56.7406 57.768 56.775 57.5716 56.7549 57.377Z" fill="#EBEBEB"/>
<path d="M66.2092 51.9218L65.3682 46.0345C65.3682 45.9573 65.3467 45.8816 65.3061 45.816C65.2655 45.7504 65.2075 45.6973 65.1385 45.6628C65.0694 45.6283 64.9922 45.6137 64.9153 45.6206C64.8385 45.6275 64.765 45.6557 64.7033 45.702L58.5899 49.2324C58.4249 49.3376 58.2924 49.4865 58.2073 49.6627C58.1222 49.8388 58.0878 50.0351 58.1079 50.2297L58.9489 56.1138C58.9489 56.1909 58.9704 56.2666 59.011 56.3322C59.0516 56.3979 59.1096 56.4509 59.1786 56.4854C59.2477 56.5199 59.3249 56.5345 59.4018 56.5276C59.4787 56.5207 59.5521 56.4925 59.6138 56.4462L65.7272 52.9191C65.8917 52.8134 66.0237 52.6644 66.1088 52.4884C66.1938 52.3124 66.2286 52.1163 66.2092 51.9218Z" fill="#EBEBEB"/>
<path d="M75.6636 46.47L74.8225 40.5826C74.8225 40.5055 74.801 40.4298 74.7605 40.3642C74.7199 40.2985 74.6618 40.2455 74.5928 40.211C74.5238 40.1764 74.4465 40.1618 74.3697 40.1688C74.2928 40.1757 74.2194 40.2039 74.1577 40.2502L68.0443 43.7806C67.8793 43.8857 67.7468 44.0347 67.6617 44.2108C67.5765 44.3869 67.5421 44.5833 67.5622 44.7779L68.4 50.6652C68.4012 50.7419 68.4234 50.8168 68.4642 50.8817C68.505 50.9466 68.5629 50.999 68.6315 51.0333C68.7 51.0676 68.7767 51.0824 68.8531 51.0761C68.9296 51.0699 69.0028 51.0427 69.0648 50.9977L75.1782 47.4673C75.3433 47.362 75.476 47.2131 75.5617 47.0371C75.6473 46.8611 75.6826 46.6648 75.6636 46.47Z" fill="#EBEBEB"/>
<path d="M85.1179 41.0181L84.2769 35.1308C84.2769 35.0536 84.2554 34.9779 84.2148 34.9123C84.1742 34.8467 84.1162 34.7936 84.0472 34.7591C83.9781 34.7246 83.9009 34.71 83.824 34.7169C83.7472 34.7238 83.6737 34.752 83.612 34.7983L77.4986 38.3287C77.3336 38.4338 77.2011 38.5828 77.116 38.7589C77.0309 38.9351 76.9964 39.1314 77.0166 39.326L77.8543 45.2134C77.8555 45.29 77.8777 45.3649 77.9186 45.4298C77.9594 45.4947 78.0172 45.5472 78.0858 45.5815C78.1544 45.6158 78.2311 45.6306 78.3075 45.6243C78.3839 45.618 78.4571 45.5908 78.5192 45.5458L84.6326 42.0154C84.7979 41.9104 84.9308 41.7616 85.0165 41.5855C85.1022 41.4094 85.1373 41.213 85.1179 41.0181Z" fill="#EBEBEB"/>
<path d="M94.5655 35.5662L93.7244 29.6789C93.7244 29.6017 93.7029 29.5261 93.6624 29.4604C93.6218 29.3948 93.5637 29.3418 93.4947 29.3072C93.4257 29.2727 93.3484 29.2581 93.2716 29.265C93.1947 29.272 93.1213 29.3002 93.0596 29.3465L86.9462 32.8769C86.7814 32.9823 86.6492 33.1313 86.5641 33.3073C86.479 33.4834 86.4444 33.6796 86.4641 33.8742L87.3052 39.7582C87.3064 39.8349 87.3286 39.9097 87.3694 39.9746C87.4103 40.0395 87.4681 40.092 87.5367 40.1263C87.6053 40.1606 87.6819 40.1754 87.7584 40.1691C87.8348 40.1628 87.908 40.1357 87.9701 40.0906L94.0834 36.5602C94.2476 36.4551 94.3796 36.3066 94.4646 36.1312C94.5497 35.9558 94.5846 35.7603 94.5655 35.5662Z" fill="#EBEBEB"/>
<path d="M104.026 30.1177L103.185 24.2304C103.185 24.1532 103.164 24.0776 103.123 24.0119C103.083 23.9463 103.025 23.8932 102.956 23.8587C102.887 23.8242 102.809 23.8096 102.733 23.8165C102.656 23.8235 102.582 23.8517 102.521 23.898L96.4071 27.4284C96.2424 27.5338 96.1101 27.6828 96.025 27.8588C95.9399 28.0349 95.9053 28.2311 95.9251 28.4257L96.7628 34.313C96.764 34.3897 96.7862 34.4645 96.827 34.5294C96.8679 34.5943 96.9257 34.6468 96.9943 34.6811C97.0629 34.7154 97.1396 34.7302 97.216 34.7239C97.2924 34.7176 97.3656 34.6905 97.4277 34.6454L103.541 31.115C103.706 31.0101 103.839 30.8612 103.925 30.6851C104.011 30.509 104.046 30.3126 104.026 30.1177Z" fill="#EBEBEB"/>
<path d="M45.8477 52.4171L45.635 50.9146C45.635 50.8374 45.6135 50.7617 45.5729 50.6961C45.5323 50.6305 45.4743 50.5774 45.4053 50.5429C45.3362 50.5084 45.259 50.4938 45.1821 50.5007C45.1053 50.5076 45.0319 50.5358 44.9701 50.5821L38.8534 54.1192C38.6887 54.2246 38.5564 54.3736 38.4713 54.5497C38.3862 54.7257 38.3516 54.9219 38.3714 55.1165L38.5808 56.6191C38.582 56.6957 38.6042 56.7706 38.645 56.8355C38.6859 56.9004 38.7437 56.9529 38.8123 56.9872C38.8809 57.0215 38.9576 57.0363 39.034 57.03C39.1104 57.0237 39.1836 56.9965 39.2457 56.9515L45.3657 53.4078C45.5286 53.3021 45.6595 53.154 45.7445 52.9795C45.8294 52.8049 45.8651 52.6105 45.8477 52.4171Z" fill="#E6E6E6"/>
<path d="M55.3021 46.9653L55.0893 45.4627C55.0893 45.3855 55.0678 45.3099 55.0273 45.2442C54.9867 45.1786 54.9286 45.1255 54.8596 45.091C54.7906 45.0565 54.7133 45.0419 54.6365 45.0488C54.5596 45.0558 54.4862 45.084 54.4245 45.1303L48.3077 48.6673C48.143 48.7727 48.0108 48.9217 47.9257 49.0978C47.8406 49.2738 47.806 49.4701 47.8257 49.6646L48.0352 51.1672C48.0364 51.2439 48.0586 51.3187 48.0994 51.3836C48.1402 51.4485 48.1981 51.501 48.2666 51.5353C48.3352 51.5696 48.4119 51.5844 48.4883 51.5781C48.5647 51.5718 48.638 51.5447 48.7 51.4996L54.8167 47.9692C54.9823 47.8629 55.1153 47.7129 55.201 47.5357C55.2866 47.3585 55.3216 47.1611 55.3021 46.9653Z" fill="#E6E6E6"/>
<path d="M64.7564 41.5134L64.5437 40.0108C64.5425 39.9342 64.5203 39.8593 64.4794 39.7944C64.4386 39.7295 64.3808 39.677 64.3122 39.6427C64.2436 39.6085 64.1669 39.5936 64.0905 39.5999C64.0141 39.6062 63.9409 39.6334 63.8788 39.6784L57.7621 43.2155C57.5974 43.3209 57.4651 43.4699 57.38 43.6459C57.2949 43.822 57.2603 44.0182 57.2801 44.2128L57.4895 45.7153C57.4895 45.7925 57.511 45.8682 57.5516 45.9338C57.5921 45.9995 57.6502 46.0525 57.7192 46.087C57.7882 46.1215 57.8655 46.1361 57.9424 46.1292C58.0192 46.1223 58.0926 46.0941 58.1544 46.0478L64.2711 42.5174C64.4367 42.4111 64.5697 42.261 64.6553 42.0838C64.741 41.9067 64.776 41.7092 64.7564 41.5134Z" fill="#E6E6E6"/>
<path d="M74.2108 36.0649L73.998 34.559C73.9968 34.4823 73.9746 34.4074 73.9338 34.3425C73.893 34.2776 73.8351 34.2252 73.7665 34.1909C73.6979 34.1566 73.6213 34.1418 73.5449 34.1481C73.4684 34.1544 73.3952 34.1815 73.3332 34.2266L67.2164 37.7636C67.0517 37.869 66.9194 38.018 66.8343 38.1941C66.7492 38.3701 66.7147 38.5664 66.7344 38.7609L66.9438 40.2635C66.9438 40.3407 66.9653 40.4163 67.0059 40.482C67.0465 40.5476 67.1045 40.6006 67.1735 40.6352C67.2426 40.6697 67.3198 40.6843 67.3967 40.6773C67.4736 40.6704 67.547 40.6422 67.6087 40.5959L73.7254 37.0688C73.8905 36.962 74.0231 36.8118 74.1086 36.6348C74.1942 36.4578 74.2296 36.2606 74.2108 36.0649Z" fill="#E6E6E6"/>
<path d="M83.6649 30.613L83.4522 29.1071C83.451 29.0304 83.4288 28.9556 83.3879 28.8907C83.3471 28.8258 83.2893 28.7733 83.2207 28.739C83.1521 28.7047 83.0754 28.6899 82.999 28.6962C82.9226 28.7025 82.8494 28.7296 82.7873 28.7747L76.6706 32.3117C76.5061 32.4174 76.3741 32.5665 76.289 32.7424C76.204 32.9184 76.1692 33.1145 76.1886 33.309L76.398 34.8116C76.398 34.8888 76.4195 34.9644 76.4601 35.0301C76.5006 35.0957 76.5587 35.1488 76.6277 35.1833C76.6967 35.2178 76.774 35.2324 76.8509 35.2255C76.9277 35.2185 77.0011 35.1903 77.0629 35.144L83.1796 31.617C83.3447 31.5101 83.4772 31.36 83.5628 31.1829C83.6484 31.0059 83.6837 30.8088 83.6649 30.613Z" fill="#E6E6E6"/>
<path d="M93.1195 25.1612L92.9068 23.6586C92.9068 23.5814 92.8853 23.5058 92.8447 23.4401C92.8041 23.3745 92.7461 23.3214 92.6771 23.2869C92.608 23.2524 92.5308 23.2378 92.4539 23.2447C92.377 23.2517 92.3036 23.2799 92.2419 23.3262L86.1252 26.8599C85.9607 26.9656 85.8287 27.1146 85.7436 27.2906C85.6586 27.4666 85.6238 27.6627 85.6432 27.8572L85.8526 29.3631C85.8538 29.4398 85.876 29.5146 85.9168 29.5795C85.9577 29.6444 86.0155 29.6969 86.0841 29.7312C86.1527 29.7655 86.2293 29.7803 86.3058 29.774C86.3822 29.7677 86.4554 29.7406 86.5175 29.6955L92.6342 26.1651C92.7995 26.0585 92.9323 25.9084 93.0179 25.7313C93.1035 25.5542 93.1387 25.357 93.1195 25.1612Z" fill="#E6E6E6"/>
<path d="M102.57 19.7093L102.361 18.2067C102.361 18.1296 102.339 18.0539 102.299 17.9883C102.258 17.9226 102.2 17.8696 102.131 17.8351C102.062 17.8006 101.985 17.7859 101.908 17.7929C101.831 17.7998 101.758 17.828 101.696 17.8743L95.5826 21.4047C95.4176 21.5098 95.2851 21.6588 95.2 21.8349C95.1149 22.0111 95.0804 22.2074 95.1006 22.402L95.31 23.9046C95.3112 23.9813 95.3334 24.0561 95.3742 24.121C95.4151 24.1859 95.4729 24.2384 95.5415 24.2727C95.6101 24.307 95.6868 24.3218 95.7632 24.3155C95.8396 24.3092 95.9128 24.2821 95.9749 24.237L102.092 20.7066C102.255 20.6005 102.387 20.4513 102.471 20.2753C102.556 20.0994 102.59 19.9035 102.57 19.7093Z" fill="#E6E6E6"/>
<path opacity="0.2" d="M38.7173 43.5413C38.6872 43.102 38.7779 42.6629 38.9795 42.2715C39.181 41.8801 39.4858 41.5513 39.8609 41.3206C40.6055 40.8918 41.3003 41.1877 41.4166 41.9855C41.4475 42.4252 41.3568 42.8649 41.1545 43.2566C40.9523 43.6483 40.6462 43.9767 40.2698 44.2061C39.5284 44.635 38.8337 44.3391 38.7173 43.5413Z" fill="black"/>
<path opacity="0.2" d="M48.1814 38.0961C48.1506 37.6567 48.241 37.2173 48.4426 36.8258C48.6442 36.4342 48.9494 36.1055 49.325 35.8754C50.0696 35.4433 50.7644 35.7391 50.8808 36.5403C50.9114 36.9795 50.8206 37.4187 50.6183 37.8098C50.416 38.2008 50.11 38.5287 49.7339 38.7576C48.9892 39.1731 48.2945 38.8773 48.1814 38.0961Z" fill="black"/>
<path opacity="0.2" d="M57.6258 32.6276C57.595 32.1882 57.6853 31.7488 57.8869 31.3573C58.0886 30.9657 58.3938 30.637 58.7693 30.4069C59.514 29.9748 60.2121 30.2706 60.3251 31.0718C60.3557 31.5106 60.2652 31.9495 60.0636 32.3404C59.8619 32.7314 59.5568 33.0596 59.1815 33.2891C58.4369 33.7179 57.7388 33.4221 57.6258 32.6276Z" fill="black"/>
<path opacity="0.2" d="M76.5279 21.7139C76.4971 21.2745 76.5874 20.8352 76.789 20.4436C76.9907 20.052 77.2959 19.7233 77.6714 19.4932C78.4161 19.0644 79.1109 19.3603 79.2239 20.1581C79.2562 20.5977 79.1665 21.0376 78.9647 21.4294C78.763 21.8213 78.4569 22.1498 78.0803 22.3787C77.3357 22.8043 76.6409 22.5117 76.5279 21.7139Z" fill="black"/>
<path opacity="0.2" d="M85.9888 16.2554C85.9573 15.8159 86.0473 15.3763 86.249 14.9846C86.4507 14.5929 86.7563 14.2643 87.1324 14.0347C87.877 13.6026 88.5718 13.8984 88.6882 14.6996C88.719 15.1393 88.6283 15.5791 88.4261 15.9707C88.2238 16.3624 87.9177 16.6908 87.5413 16.9202C86.7966 17.3457 86.1019 17.0499 85.9888 16.2554Z" fill="black"/>
<path opacity="0.2" d="M95.4331 10.8002C95.4023 10.3608 95.4927 9.92146 95.6943 9.52991C95.8959 9.13835 96.2012 8.80963 96.5767 8.57955C97.3213 8.14739 98.0195 8.44325 98.1325 9.24441C98.163 9.68326 98.0726 10.1221 97.8709 10.5131C97.6693 10.904 97.3642 11.2322 96.9889 11.4617C96.2277 11.8906 95.5628 11.5947 95.4331 10.8002Z" fill="black"/>
<path d="M37.7399 34.559C36.7426 33.9772 35.7653 33.8941 35.0206 34.3229C34.276 34.7518 33.8638 35.6294 33.8638 36.7962C33.8703 37.342 33.9508 37.8844 34.1031 38.4085L34.6948 38.0761C34.5886 37.6599 34.5328 37.2324 34.5286 36.8029C34.5286 35.8854 34.8212 35.2105 35.3531 34.9047C35.5713 34.7828 35.8179 34.7209 36.0678 34.7252C36.5393 34.7477 36.9971 34.8908 37.3975 35.1407C39.166 36.1646 40.6055 38.6578 40.6055 40.699C40.6064 40.8445 40.5987 40.9899 40.5822 41.1344C40.574 41.4239 40.4975 41.7073 40.3589 41.9616C40.2202 42.2158 40.0233 42.4336 39.7844 42.5971C39.4796 42.7617 39.128 42.818 38.7871 42.7567C38.7199 42.9716 38.6918 43.1968 38.704 43.4216C38.8282 43.4413 38.9538 43.4513 39.0796 43.4515C39.4457 43.456 39.8063 43.3619 40.1234 43.1789C40.4202 42.9928 40.6718 42.7428 40.8598 42.4473C41.0479 42.1517 41.1677 41.8179 41.2105 41.4702C41.2553 41.2178 41.2775 40.9619 41.277 40.7056C41.2803 38.4285 39.6913 35.6859 37.7399 34.559Z" fill="#F5F5F5"/>
<path d="M47.2008 29.1005C46.2036 28.5187 45.2262 28.4356 44.4816 28.8644C43.7369 29.2933 43.3247 30.1709 43.3247 31.3377C43.3312 31.8835 43.4117 32.4259 43.5641 32.95L44.1558 32.6176C44.0495 32.2014 43.9937 31.7739 43.9896 31.3444C43.9896 30.4269 44.2821 29.752 44.814 29.4462C45.0322 29.3243 45.2788 29.2624 45.5287 29.2667C46.0002 29.2892 46.458 29.4322 46.8584 29.6822C48.627 30.7061 50.0664 33.1993 50.0664 35.2405C50.0674 35.386 50.0596 35.5314 50.0431 35.6759C50.035 35.9654 49.9585 36.2488 49.8198 36.5031C49.6811 36.7573 49.4843 36.9751 49.2453 37.1386C48.9405 37.3032 48.5889 37.3595 48.248 37.2982C48.1809 37.5131 48.1527 37.7383 48.1649 37.9631C48.2891 37.9828 48.4147 37.9928 48.5405 37.993C48.9067 37.9975 49.2672 37.9034 49.5844 37.7204C49.8812 37.5343 50.1327 37.2843 50.3208 36.9887C50.5088 36.6932 50.6286 36.3594 50.6714 36.0117C50.7162 35.7593 50.7385 35.5034 50.7379 35.2471C50.7412 32.9799 49.1522 30.2274 47.2008 29.1005Z" fill="#F5F5F5"/>
<path d="M56.6449 23.6453C55.6476 23.0635 54.6703 22.9804 53.9257 23.4093C53.181 23.8381 52.7688 24.7157 52.7688 25.8826C52.7753 26.4283 52.8558 26.9707 53.0081 27.4948L53.5999 27.1624C53.4936 26.7462 53.4378 26.3187 53.4337 25.8892C53.4337 24.9717 53.7262 24.2969 54.2581 23.991C54.4763 23.8692 54.7229 23.8072 54.9728 23.8115C55.4443 23.834 55.9021 23.9771 56.3025 24.227C58.0711 25.2509 59.5105 27.7442 59.5105 29.7853C59.5115 29.9308 59.5037 30.0762 59.4872 30.2208C59.4791 30.5102 59.4025 30.7937 59.2639 31.0479C59.1252 31.3021 58.9283 31.5199 58.6894 31.6835C58.3846 31.8481 58.033 31.9043 57.6921 31.843C57.625 32.0579 57.5968 32.2831 57.609 32.5079C57.7332 32.5276 57.8588 32.5376 57.9846 32.5378C58.3507 32.5424 58.7113 32.4482 59.0285 32.2652C59.3253 32.0791 59.5768 31.8291 59.7649 31.5336C59.9529 31.238 60.0727 30.9042 60.1155 30.5565C60.1603 30.3041 60.1826 30.0483 60.182 29.7919C60.1853 27.5248 58.5963 24.7722 56.6449 23.6453Z" fill="#F5F5F5"/>
<path d="M75.5504 12.7482C74.5532 12.1665 73.5758 12.0834 72.8312 12.5122C72.0865 12.941 71.6743 13.8187 71.6743 14.9855C71.6808 15.5313 71.7613 16.0736 71.9137 16.5978L72.5054 16.2653C72.3992 15.8491 72.3434 15.4217 72.3392 14.9921C72.3392 14.0746 72.6317 13.3998 73.1636 13.094C73.3818 12.9721 73.6284 12.9102 73.8783 12.9144C74.3498 12.9369 74.8076 13.08 75.208 13.33C76.9766 14.3539 78.416 16.8471 78.416 18.8882C78.417 19.0337 78.4092 19.1791 78.3927 19.3237C78.3846 19.6132 78.3081 19.8966 78.1694 20.1508C78.0307 20.405 77.8339 20.6228 77.5949 20.7864C77.2901 20.951 76.9385 21.0073 76.5976 20.946C76.5305 21.1609 76.5024 21.386 76.5145 21.6108C76.6388 21.6306 76.7643 21.6406 76.8901 21.6407C77.2563 21.6453 77.6168 21.5511 77.934 21.3681C78.2308 21.182 78.4823 20.9321 78.6704 20.6365C78.8584 20.3409 78.9782 20.0072 79.021 19.6595C79.0658 19.4071 79.0881 19.1512 79.0875 18.8949C79.0908 16.6277 77.5018 13.8752 75.5504 12.7482Z" fill="#F5F5F5"/>
<path d="M85.0114 7.28639C84.0141 6.70464 83.0367 6.62153 82.2921 7.05037C81.5475 7.4792 81.1353 8.35682 81.1353 9.52365C81.1417 10.0694 81.2223 10.6118 81.3746 11.1359L81.9663 10.8035C81.8601 10.3873 81.8043 9.95983 81.8001 9.5303C81.8001 8.61279 82.0926 7.93796 82.6245 7.63212C82.8428 7.51026 83.0894 7.44832 83.3393 7.45261C83.8108 7.4751 84.2686 7.61817 84.669 7.86815C86.4375 8.89203 87.8769 11.3853 87.8769 13.4264C87.8779 13.5719 87.8702 13.7173 87.8537 13.8619C87.8455 14.1513 87.769 14.4348 87.6303 14.689C87.4917 14.9432 87.2948 15.161 87.0558 15.3246C86.7511 15.4892 86.3995 15.5454 86.0585 15.4841C85.9914 15.699 85.9633 15.9242 85.9754 16.149C86.0997 16.1687 86.2253 16.1787 86.3511 16.1789C86.7172 16.1835 87.0778 16.0893 87.3949 15.9063C87.6917 15.7202 87.9433 15.4702 88.1313 15.1747C88.3194 14.8791 88.4391 14.5453 88.482 14.1976C88.5268 13.9452 88.549 13.6894 88.5484 13.433C88.5518 11.1692 86.9628 8.41333 85.0114 7.28639Z" fill="#F5F5F5"/>
<path d="M94.4559 1.83122C93.4586 1.24947 92.4812 1.16636 91.7366 1.5952C90.992 2.02403 90.5764 2.90165 90.5764 4.06848C90.5829 4.61426 90.6634 5.15664 90.8158 5.68077L91.4075 5.34834C91.3013 4.93213 91.2455 4.50466 91.2413 4.07513C91.2413 3.15762 91.5338 2.48279 92.0657 2.17695C92.2839 2.05509 92.5305 1.99315 92.7804 1.99744C93.2519 2.01993 93.7098 2.163 94.1102 2.41298C95.8787 3.43686 97.3181 5.93009 97.3181 7.97121C97.3191 8.11671 97.3113 8.26213 97.2948 8.4067C97.2867 8.69616 97.2102 8.97959 97.0715 9.23381C96.9328 9.48803 96.736 9.70583 96.497 9.86939C96.1922 10.034 95.8406 10.0902 95.4997 10.029C95.4326 10.2438 95.4044 10.469 95.4166 10.6938C95.5408 10.7135 95.6664 10.7236 95.7922 10.7237C96.1584 10.7283 96.5189 10.6341 96.8361 10.4511C97.1329 10.265 97.3844 10.0151 97.5725 9.7195C97.7605 9.42392 97.8803 9.09014 97.9231 8.74245C97.9679 8.49006 97.9902 8.23419 97.9896 7.97786C97.9963 5.71069 96.4072 2.95816 94.4559 1.83122Z" fill="#F5F5F5"/>
<path d="M102.396 82.3347L100.163 86.2142C100.016 86.4566 99.9713 86.7474 100.039 87.0227C100.107 87.2979 100.281 87.535 100.523 87.6818C100.766 87.8286 101.057 87.8731 101.332 87.8054C101.607 87.7378 101.844 87.5636 101.991 87.3211L104.238 83.4184C104.454 83.0461 104.222 82.5042 103.716 82.2117C103.211 81.9191 102.613 81.9723 102.396 82.3347Z" fill="#455A64"/>
<path d="M120.175 75.5032L124.054 77.7372C124.174 77.811 124.306 77.8603 124.445 77.8823C124.583 77.9044 124.725 77.8986 124.861 77.8654C124.998 77.8322 125.126 77.7722 125.239 77.6889C125.351 77.6056 125.447 77.5007 125.519 77.3803C125.59 77.2598 125.638 77.1263 125.657 76.9875C125.677 76.8486 125.669 76.7072 125.634 76.5715C125.598 76.4358 125.536 76.3085 125.451 76.197C125.366 76.0855 125.26 75.9921 125.138 75.9221L121.235 73.6915C120.863 73.4754 120.321 73.7081 120.029 74.2134C119.736 74.7187 119.803 75.2872 120.175 75.5032Z" fill="#455A64"/>
<path d="M124.473 58.0141H124.453L115.002 52.5589H114.976C112.901 51.3788 110.043 51.5616 106.888 53.3767C100.548 57.0334 95.4089 65.9392 95.4089 73.2593C95.4089 76.9161 96.6888 79.4725 98.7532 80.6759H98.7698L108.221 86.1344H108.244C110.318 87.3211 113.181 87.1317 116.339 85.3199C122.675 81.6632 127.814 72.7574 127.814 65.4406C127.814 61.7838 126.538 59.2175 124.473 58.0141Z" fill="#001F29"/>
<path opacity="0.1" d="M108.068 86.0247L98.7598 80.6592H98.7398C96.6755 79.4525 95.3989 76.8861 95.3989 73.2427C95.3989 69.9782 96.4228 66.4013 98.1149 63.1169L107.566 68.5721C105.87 71.8565 104.85 75.4334 104.85 78.6979C104.857 82.2549 106.08 84.788 108.068 86.0247Z" fill="black"/>
<path opacity="0.4" d="M124.454 76.7423C128.937 68.9784 128.937 60.5867 124.455 57.9989C119.973 55.4111 112.705 59.6072 108.223 67.3711C103.74 75.1351 103.74 83.5268 108.222 86.1146C112.704 88.7023 119.972 84.5063 124.454 76.7423Z" fill="white"/>
<path d="M111.209 84.552C107.579 84.552 107.187 80.4498 107.187 78.6846C107.187 72.2288 111.911 64.0577 117.492 60.8198C118.915 59.9987 120.285 59.5665 121.455 59.5665C125.085 59.5665 125.477 63.6687 125.477 65.4339C125.477 71.8897 120.753 80.0609 115.172 83.2987C113.746 84.1198 112.376 84.552 111.209 84.552Z" fill="#FAFAFA"/>
<path d="M113.792 79.5389C113.775 79.5421 113.757 79.5421 113.739 79.5389C113.698 79.5239 113.664 79.4932 113.644 79.4535C113.625 79.4138 113.622 79.3681 113.636 79.3262L116.179 72.0626C116.194 72.0207 116.224 71.9863 116.264 71.967C116.304 71.9477 116.35 71.945 116.392 71.9595C116.434 71.9741 116.468 72.0047 116.488 72.0446C116.507 72.0845 116.51 72.1304 116.495 72.1723L113.959 79.4259C113.947 79.4606 113.925 79.4906 113.895 79.5111C113.865 79.5316 113.829 79.5414 113.792 79.5389Z" fill="#001F29"/>
<path d="M120.148 74.2533C120.081 74.2545 120.014 74.2409 119.952 74.2134L115.84 72.4349V64.9752C115.84 64.8429 115.893 64.7161 115.986 64.6226C116.08 64.529 116.206 64.4765 116.339 64.4765C116.471 64.4765 116.598 64.529 116.691 64.6226C116.785 64.7161 116.837 64.8429 116.837 64.9752V71.78L120.348 73.2992C120.452 73.3456 120.537 73.4262 120.589 73.5276C120.641 73.6291 120.656 73.7452 120.633 73.8567C120.61 73.9682 120.549 74.0684 120.461 74.1405C120.373 74.2127 120.262 74.2525 120.148 74.2533Z" fill="#37474F"/>
<path d="M116.339 70.5002C117.083 70.068 117.688 70.4171 117.688 71.278C117.661 71.7444 117.524 72.1977 117.29 72.6018C117.056 73.0059 116.73 73.3495 116.339 73.6051C115.591 74.0372 114.986 73.6882 114.986 72.8239C115.014 72.3578 115.152 71.9049 115.387 71.5015C115.622 71.098 115.948 70.755 116.339 70.5002Z" fill="#001F29"/>
<path d="M105.355 65.148C103.726 67.9637 100.658 69.2403 98.351 67.9072C96.9976 67.1247 96.0106 65.8367 95.6069 64.3264C95.2032 62.8162 95.416 61.2074 96.1985 59.8541C96.981 58.5007 98.269 57.5137 99.7793 57.11C101.29 56.7063 102.898 56.9191 104.252 57.7016C106.552 59.0646 106.978 62.329 105.355 65.148Z" fill="#455A64"/>
<path d="M98.3508 67.9072C100.658 69.2369 103.726 67.9637 105.355 65.148C105.719 64.5168 105.989 63.8359 106.156 63.1269C106.063 63.2499 103.351 66.7071 99.9797 65.7331C96.5491 64.7358 95.9041 62.0996 96.2 59.8524C95.8122 60.5225 95.5602 61.2624 95.4584 62.0299C95.3566 62.7974 95.407 63.5774 95.6067 64.3254C95.8065 65.0734 96.1516 65.7747 96.6225 66.3893C97.0933 67.0039 97.6806 67.5197 98.3508 67.9072Z" fill="#37474F"/>
<path d="M97.4034 59.2806L95.6548 58.2834C95.5356 58.2095 95.4028 58.1602 95.2643 58.1382C95.1258 58.1162 94.9843 58.1219 94.848 58.1552C94.7118 58.1884 94.5835 58.2484 94.4706 58.3317C94.3578 58.4149 94.2626 58.5199 94.1907 58.6403C94.1188 58.7607 94.0716 58.8942 94.0518 59.0331C94.032 59.1719 94.0401 59.3133 94.0755 59.449C94.1109 59.5847 94.1729 59.712 94.258 59.8235C94.3431 59.935 94.4495 60.0285 94.5711 60.0984L96.3396 61.1223C96.7153 61.3384 97.2571 61.1057 97.5497 60.6004C97.8422 60.0951 97.7757 59.4967 97.4034 59.2806Z" fill="#001F29"/>
<path d="M123.486 50.8469L124.483 49.1016C124.557 48.9824 124.606 48.8496 124.628 48.7111C124.65 48.5726 124.645 48.4311 124.611 48.2948C124.578 48.1586 124.518 48.0303 124.435 47.9174C124.352 47.8046 124.247 47.7094 124.126 47.6375C124.006 47.5656 123.872 47.5184 123.733 47.4986C123.595 47.4789 123.453 47.4869 123.317 47.5223C123.182 47.5577 123.054 47.6197 122.943 47.7048C122.831 47.7899 122.738 47.8963 122.668 48.0179L121.644 49.7864C121.428 50.1587 121.644 50.7006 122.166 50.9931C122.688 51.2857 123.266 51.2225 123.486 50.8469Z" fill="#001F29"/>
<path d="M115.039 51.5683C115.426 50.8971 115.942 50.3087 116.557 49.8369C117.172 49.3651 117.873 49.0189 118.622 48.8183C119.371 48.6176 120.151 48.5664 120.92 48.6675C121.688 48.7686 122.429 49.02 123.1 49.4075C123.771 49.7949 124.36 50.3108 124.832 50.9256C125.303 51.5404 125.65 52.2421 125.85 52.9907C126.051 53.7392 126.102 54.52 126.001 55.2884C125.9 56.0568 125.648 56.7977 125.261 57.4689L115.039 51.5683Z" fill="#455A64"/>
<path d="M123.965 50.0358C124.297 50.7305 125.201 53.6725 123.965 54.4039C122.728 55.1352 117.017 52.7085 117.017 52.7085L125.261 57.4689C125.948 56.2737 126.194 54.8757 125.957 53.5178C125.72 52.1599 125.015 50.9279 123.965 50.0358Z" fill="#37474F"/>
<path d="M86.656 66.88C80.772 58.9715 78.8372 58.0906 77.7302 57.8213L79.6716 63.1402L83.7073 68.3161" fill="#FFA8A7"/>
<path d="M77.155 57.7349C77.155 57.7349 78.405 57.3559 80.2134 59.1277C82.0218 60.8996 84.2025 63.4826 84.2025 63.4826C84.2025 63.4826 83.6141 65.5935 81.7758 66.2484L79.1164 63.4826L77.155 57.7349Z" fill="#76517B"/>
<path opacity="0.1" d="M77.155 57.7349C77.155 57.7349 78.405 57.3559 80.2134 59.1277C82.0218 60.8996 84.2025 63.4826 84.2025 63.4826C84.2025 63.4826 83.6141 65.5935 81.7758 66.2484L79.1164 63.4826L77.155 57.7349Z" fill="black"/>
<path d="M78.3008 53.359C80.1162 52.9305 81.2406 51.1114 80.8121 49.296C80.3836 47.4805 78.5645 46.3562 76.7491 46.7847C74.9336 47.2131 73.8093 49.0322 74.2378 50.8477C74.6662 52.6631 76.4853 53.7875 78.3008 53.359Z" fill="#263238"/>
<path d="M69.4394 111.296H71.8196V107.224H69.4394V111.296Z" fill="#FFA8A7"/>
<path d="M77.1982 108.337L79.5751 108.421L79.6948 104.109L77.3146 104.026L77.1982 108.337Z" fill="#FFA8A7"/>
<path d="M69.5924 74.9348V91.3934C69.5359 92.0583 69.0539 93.1786 68.9276 95.961C68.768 99.3751 69.2899 108.77 69.2899 108.77C69.2899 108.77 70.4035 109.877 71.9793 108.77C71.9793 108.77 74.0902 95.3593 74.519 91.9785C74.8913 89.0265 75.5163 81.0083 75.5163 81.0083L76.9391 93.0855C76.9391 93.0855 76.5502 95.3028 76.4671 96.8652C76.384 98.4276 77.1519 106.782 77.1519 106.782C77.5375 107.022 77.9795 107.158 78.4338 107.175C78.8882 107.192 79.339 107.09 79.7415 106.878C79.7415 106.878 81.3704 94.362 81.6164 92.9492C81.8624 91.5364 80.7222 74.9315 80.7222 74.9315L69.5924 74.9348Z" fill="#37474F"/>
<path d="M71.8794 58.4961C71.5462 58.5423 71.2179 58.6191 70.8987 58.7255C70.2339 58.9815 69.9447 59.7859 69.7884 60.494C69.6577 61.0879 69.5919 61.6943 69.5923 62.3024V74.9348C71.2544 76.7499 77.0786 77.5942 80.7221 74.9348C80.7221 74.9348 80.6522 63.7784 80.3896 61.9434C79.9142 58.7587 78.395 57.6218 76.8592 57.7415L73.1859 58.2667L71.8794 58.4961Z" fill="#76517B"/>
<path d="M71.6868 52.4692C71.6868 52.4692 72.2353 55.0388 72.4547 55.461C72.5996 55.7201 72.8371 55.9149 73.1195 56.0062L73.0797 54.1945L71.6868 52.4692Z" fill="#263238"/>
<path d="M72.3749 48.7825C72.1833 48.7607 71.9893 48.7825 71.8073 48.8464C71.6254 48.9103 71.4603 49.0146 71.3245 49.1515C70.8757 49.6136 71.1283 51.0563 71.6868 52.4758L72.7207 52.5921L72.3749 48.7825Z" fill="#263238"/>
<path d="M73.0297 52.5855C72.8203 52.7118 72.5278 52.3129 72.2718 52.047C72.0158 51.781 71.1848 51.4153 70.7692 52.2896C70.3537 53.1639 71.1349 54.3607 71.7898 54.5668C72.92 54.9192 73.0896 54.1945 73.0896 54.1945L73.176 58.2701C73.4255 58.8166 73.8066 59.2928 74.2852 59.656C74.7638 60.0192 75.325 60.258 75.9186 60.3511C77.9131 60.6203 77.5076 58.9715 76.8494 58.1604V56.9204C77.3526 57.0013 77.863 57.028 78.3719 57.0002C79.203 56.8705 79.7249 56.2156 79.9775 55.3181C80.3831 53.872 80.536 52.7085 80.1936 49.8662C79.8146 46.7547 76.2045 46.7214 74.2398 47.9514C72.2751 49.1814 73.0297 52.5855 73.0297 52.5855Z" fill="#FFA8A7"/>
<path d="M73.0298 52.9346C72.9235 52.9346 72.5279 52.2697 72.2719 52.047C71.9162 51.7145 72.375 48.7825 72.375 48.7825C72.2797 48.5293 72.2605 48.2539 72.3195 47.9899C72.3786 47.726 72.5134 47.485 72.7074 47.2965C73.1927 46.758 74.0105 46.7015 75.4034 46.4821C76.1347 46.3657 77.2451 46.1497 77.9764 46.0267C78.8474 45.8638 79.5687 45.6942 80.1837 46.2261C80.4263 46.4345 80.5979 46.7132 80.6747 47.0236C80.7516 47.334 80.7299 47.6606 80.6126 47.9581C80.5491 48.0943 80.465 48.2199 80.3633 48.3304C80.1871 48.5265 80.1571 48.7925 79.9078 48.8723C79.9078 48.8723 79.3793 49.351 78.0562 49.5105C76.8378 49.6016 75.6135 49.5783 74.3994 49.4407C74.0138 49.3875 73.9108 49.5105 73.7047 50.5244C73.5285 51.4187 73.3789 52.9279 73.0298 52.9346Z" fill="#263238"/>
<path d="M72.3781 49.0119L71.1282 48.347C71.1677 48.2628 71.224 48.1874 71.2936 48.1256C71.3632 48.0639 71.4446 48.0169 71.533 47.9877C71.6214 47.9584 71.7147 47.9475 71.8075 47.9556C71.9002 47.9636 71.9903 47.9905 72.0723 48.0345C72.238 48.128 72.3619 48.2811 72.4187 48.4627C72.4755 48.6442 72.461 48.8406 72.3781 49.0119Z" fill="#263238"/>
<path d="M76.8459 56.9204C76.8459 56.9204 74.9943 56.5481 74.346 56.2024C73.9646 56.0048 73.6517 55.6966 73.4485 55.3181C73.5472 55.6963 73.7201 56.0511 73.9571 56.3619C74.4325 56.9669 76.8459 57.4157 76.8459 57.4157V56.9204Z" fill="#F28F8F"/>
<path d="M76.52 52.4625C76.5174 52.5355 76.4934 52.6061 76.4509 52.6656C76.4085 52.7251 76.3495 52.7707 76.2812 52.7969C76.213 52.823 76.1386 52.8285 76.0673 52.8127C75.9959 52.7968 75.9309 52.7604 75.8801 52.7078C75.8294 52.6552 75.7952 52.5889 75.7819 52.5171C75.7686 52.4452 75.7767 52.3711 75.8052 52.3038C75.8337 52.2365 75.8814 52.1792 75.9423 52.1388C76.0032 52.0985 76.0747 52.0769 76.1477 52.0769C76.1976 52.0773 76.2469 52.0877 76.2928 52.1074C76.3386 52.1271 76.3801 52.1557 76.4148 52.1916C76.4494 52.2275 76.4766 52.2699 76.4947 52.3164C76.5127 52.363 76.5214 52.4126 76.52 52.4625Z" fill="#263238"/>
<path d="M76.1246 51.063L75.3301 51.4985C75.2745 51.3893 75.2627 51.263 75.2974 51.1456C75.332 51.0281 75.4103 50.9283 75.5163 50.8668C75.5688 50.8384 75.6266 50.8209 75.6861 50.8154C75.7456 50.8099 75.8055 50.8166 75.8624 50.8349C75.9192 50.8532 75.9718 50.8829 76.0169 50.9221C76.0619 50.9613 76.0986 51.0092 76.1246 51.063Z" fill="#263238"/>
<path d="M76.6798 54.6898L77.5275 55.0222C77.5092 55.0791 77.4796 55.1317 77.4405 55.1768C77.4013 55.222 77.3534 55.2587 77.2996 55.2848C77.2459 55.3109 77.1874 55.3258 77.1277 55.3287C77.068 55.3315 77.0084 55.3223 76.9524 55.3014C76.8939 55.2797 76.8404 55.2465 76.7949 55.2039C76.7494 55.1612 76.7129 55.1099 76.6876 55.0529C76.6622 54.9959 76.6484 54.9345 76.6471 54.8721C76.6457 54.8098 76.6569 54.7478 76.6798 54.6898Z" fill="#F28F8F"/>
<path d="M79.8311 51.3721L79.1064 50.8137C79.1404 50.7644 79.1841 50.7226 79.2349 50.6909C79.2856 50.6591 79.3423 50.6381 79.4014 50.629C79.4606 50.62 79.521 50.6232 79.5789 50.6384C79.6368 50.6535 79.6909 50.6804 79.7381 50.7173C79.8349 50.7935 79.8986 50.9041 79.9159 51.026C79.9332 51.148 79.9029 51.272 79.8311 51.3721Z" fill="#263238"/>
<path d="M79.6084 52.3595C79.6093 52.4091 79.6003 52.4583 79.582 52.5045C79.5638 52.5506 79.5365 52.5927 79.5019 52.6282C79.4673 52.6637 79.426 52.6921 79.3803 52.7116C79.3347 52.7311 79.2857 52.7413 79.2361 52.7417C79.1591 52.7444 79.0832 52.724 79.018 52.6831C78.9528 52.6422 78.9013 52.5828 78.8701 52.5124C78.839 52.442 78.8296 52.3639 78.8432 52.2881C78.8569 52.2124 78.8928 52.1424 78.9465 52.0873C79.0002 52.0322 79.0692 51.9944 79.1446 51.9788C79.2199 51.9631 79.2982 51.9704 79.3694 51.9997C79.4406 52.029 79.5014 52.0789 79.544 52.143C79.5866 52.2071 79.609 52.2825 79.6084 52.3595Z" fill="#263238"/>
<path d="M77.5972 51.6647L77.7202 53.8986L78.887 53.503L77.5972 51.6647Z" fill="#F28F8F"/>
<path d="M71.8161 110.123V109.79C72.0455 109.887 72.5741 111.908 73.5182 112.782C74.2695 113.467 75.2934 114.255 75.5527 115.019C75.8119 115.784 74.1265 116.253 73.4251 116.126C72.6106 115.983 71.1978 115.408 70.8454 114.876C70.4931 114.344 70.3235 113.547 70.0343 113.171C69.7451 112.795 69.0836 112.347 68.9273 111.894C68.8801 111.473 68.9266 111.046 69.0636 110.644C69.1733 110.226 69.293 109.764 69.4359 109.803C69.4359 109.853 69.4359 110.063 69.4359 110.063C69.776 110.327 70.1953 110.469 70.626 110.465C70.9751 110.458 71.8195 110.388 71.8161 110.123Z" fill="#263238"/>
<path d="M79.5984 107.686C79.7247 107.686 79.8244 107.865 80.097 108.161C80.5049 108.569 80.9779 108.906 81.4965 109.158C82.3874 109.607 84.1194 110.292 84.9039 110.644C85.3926 110.867 85.3693 111.459 84.864 111.795C84.3588 112.13 83.1354 112.373 81.6694 112.044C80.8682 111.868 79.8277 111.126 79.1695 111.166C78.5113 111.206 77.278 111.2 76.7926 110.864C76.3073 110.528 76.5001 109.813 76.6364 109.202C76.786 108.537 77.0021 107.503 77.2248 107.54V107.752C77.514 108.184 78.9701 108.361 79.5984 108.045V107.686Z" fill="#263238"/>
<path d="M75.5164 81.005C76.7504 80.6239 77.8853 79.9759 78.8407 79.1068C78.8407 79.1068 78.2024 80.3035 76.3009 81.4172L76.3408 87.9029L75.5164 81.005Z" fill="#263238"/>
<path d="M71.0051 80.9052C70.6129 80.5728 70.3669 80.144 69.7751 79.7085C69.3465 79.4436 68.9874 79.08 68.728 78.648C68.3956 78.0896 68.0631 76.2279 67.9634 74.4594C67.904 72.4844 68.1816 70.5136 68.7845 68.6319C69.5923 66.4013 71.2312 63.4094 71.7764 62.1462C72.3216 60.883 72.029 60.248 71.5403 59.6064C70.9686 58.8551 69.9081 58.8518 68.9075 60.5638C67.5744 62.9436 66.5107 65.4646 65.7361 68.0801C65.2138 70.0369 65.0195 72.0667 65.161 74.0871C65.2707 75.9587 65.6796 77.3881 66.2048 79.1866C66.3511 79.6752 66.3345 80.0742 66.5007 81.0415C66.5443 81.4456 66.6474 81.8411 66.8065 82.215C67.0319 82.6642 67.3195 83.0794 67.6609 83.4483C68.0933 83.9167 68.6431 84.261 69.2532 84.4456C69.5886 84.5455 69.9428 84.5649 70.2871 84.5021C70.6331 84.4397 70.9455 84.2558 71.168 83.9835C71.2146 83.9293 71.2466 83.8641 71.2611 83.7941C71.2599 83.6699 71.2111 83.5509 71.1248 83.4616C70.6526 82.9083 70.2087 82.3314 69.7951 81.733C69.4893 81.2177 69.343 80.8088 69.4627 80.8321C69.5823 80.8554 69.7386 81.1645 70.184 81.4438C70.6295 81.723 71.1813 81.713 71.311 81.4637C71.4406 81.2144 71.4074 81.2443 71.0051 80.9052Z" fill="#FFA8A7"/>
<path d="M71.1679 58.649C70.2172 58.7055 69.3529 58.9183 68.4021 60.8032C67.4514 62.6881 65.9587 66.2185 65.9587 66.2185C66.319 66.8632 66.8468 67.3986 67.4865 67.7679C68.1261 68.1371 68.8537 68.3266 69.5922 68.3161C69.5922 68.3161 71.7796 63.7485 72.1353 62.5451C72.491 61.3417 72.737 59.397 71.1679 58.649Z" fill="#76517B"/>
<path opacity="0.1" d="M71.1679 58.649C70.2172 58.7055 69.3529 58.9183 68.4021 60.8032C67.4514 62.6881 65.9587 66.2185 65.9587 66.2185C66.319 66.8632 66.8468 67.3986 67.4865 67.7679C68.1261 68.1371 68.8537 68.3266 69.5922 68.3161C69.5922 68.3161 71.7796 63.7485 72.1353 62.5451C72.491 61.3417 72.737 59.397 71.1679 58.649Z" fill="black"/>
<path d="M83.7073 68.3161C83.4912 68.9477 81.4168 70.8725 79.891 71.4842C79.5296 71.6088 79.1409 71.6318 78.7674 71.5507C78.4097 71.4005 78.025 71.3259 77.6371 71.3313C77.1917 71.3711 76.7396 71.4576 76.2908 71.5108C76.1973 71.5138 76.1056 71.5364 76.0215 71.5773C75.7489 71.7269 75.9052 71.9562 76.1212 72.0393C76.4695 72.1649 76.826 72.266 77.1883 72.3418V72.4383C76.26 72.7628 75.2912 72.9574 74.3095 73.0167C74.135 73.0184 73.9659 73.0767 73.8275 73.1829C73.7711 73.2461 73.7315 73.3224 73.7123 73.4049C73.6932 73.4874 73.695 73.5734 73.7178 73.655C73.7643 73.8167 73.8435 73.9672 73.9505 74.0971C74.3511 74.7034 74.9746 75.1274 75.6858 75.2772C76.4045 75.3321 77.1269 75.2416 77.81 75.0113C78.1402 74.9182 78.466 74.8151 78.7873 74.7021C79.7282 74.3557 80.6445 73.9459 81.5299 73.4754C83.4259 72.4803 85.1847 71.2433 86.7623 69.7954C87.7197 68.8613 87.4837 67.9637 86.6792 66.88" fill="#FFA8A7"/>
<path d="M79.6682 71.544C79.6682 71.544 80.0006 71.421 80.3796 72.0294C80.7586 72.6377 80.9979 73.748 80.5226 73.9674C80.6863 73.9769 80.8496 73.9435 80.9965 73.8707C81.1434 73.7978 81.2688 73.6879 81.3603 73.5519C81.4579 73.1185 81.431 72.6664 81.2828 72.2476C81.1346 71.8288 80.8711 71.4605 80.5226 71.185C80.2025 71.1918 79.897 71.3201 79.6682 71.544Z" fill="#37474F"/>
<path d="M81.4269 71.7667C81.498 71.887 81.5318 72.0258 81.5238 72.1654C81.5159 72.3049 81.4667 72.439 81.3824 72.5504C81.298 72.6619 81.1825 72.7458 81.0504 72.7915C80.9183 72.8371 80.7756 72.8424 80.6404 72.8068C80.5053 72.7711 80.3838 72.6961 80.2914 72.5912C80.199 72.4863 80.1399 72.3563 80.1216 72.2177C80.1032 72.0792 80.1265 71.9383 80.1885 71.813C80.2505 71.6877 80.3483 71.5836 80.4695 71.5141C80.6301 71.421 80.8209 71.3953 81.0004 71.4426C81.1798 71.49 81.3332 71.6065 81.4269 71.7667Z" fill="#76517B"/>
<path d="M81.264 71.8598C81.3158 71.9486 81.34 72.0508 81.3335 72.1534C81.3271 72.256 81.2903 72.3543 81.2279 72.436C81.1654 72.5176 81.0802 72.5789 80.9828 72.6119C80.8855 72.645 80.7806 72.6484 80.6813 72.6217C80.582 72.595 80.493 72.5395 80.4253 72.462C80.3577 72.3846 80.3147 72.2889 80.3016 72.1869C80.2885 72.085 80.306 71.9814 80.3519 71.8895C80.3978 71.7975 80.47 71.7212 80.5593 71.6703C80.618 71.6364 80.6828 71.6144 80.75 71.6055C80.8172 71.5967 80.8855 71.6012 80.951 71.6188C81.0164 71.6364 81.0778 71.6668 81.1315 71.7081C81.1852 71.7495 81.2303 71.801 81.264 71.8598Z" fill="#FAFAFA"/>
</svg>
