<svg width="101" height="321" viewBox="0 0 101 321" fill="none" xmlns="http://www.w3.org/2000/svg">
<path d="M80.879 228.013L76.4748 161.412L74.6816 147.51C62.6525 151.14 50.6808 154.483 39.0534 155.48H38.6732C33.0233 155.99 27.3317 155.792 21.7307 154.891C19.3119 154.446 16.9177 153.876 14.5577 153.184C14.2995 155.064 14.0915 157.646 13.9839 159.934C13.9265 161.505 13.9121 163.147 13.9839 164.84C14.156 169.309 24.6573 293.236 24.6573 293.236L45.8893 294.133L44.8133 178.082L46.5348 178.519C46.5348 178.519 56.0318 228.422 56.6344 236.455C57.1795 243.686 64.7398 296.335 64.7398 296.335L84.1069 295.862L80.879 228.013Z" fill="#263238"/>
<path d="M75.6713 60.079L58.9941 51.9233L56.6414 48.2938L34.771 45.7617L31.493 51.6794C31.493 51.6794 18.6964 56.9874 11.4086 60.911L15.6192 111.122L16.5445 125.145L11.3584 153.234C10.0099 155.142 9.92384 156.986 11.3584 158.75C16.1285 159.69 32.8773 165.206 42.2022 165.206C55.7017 165.206 77.981 158.75 77.981 158.75L72.8523 124.091L73.6198 89.1797L75.6713 60.079Z" fill="#555428"/>
<path d="M44.1606 165.163C44.153 165.072 44.153 164.981 44.1606 164.891C44.1606 164.697 44.1606 164.431 44.1606 164.101C44.1606 163.384 44.0888 162.366 44.0386 161.06C43.9884 159.755 43.9454 158.126 43.9167 156.247C43.888 154.368 43.8449 152.237 43.8521 149.87C43.8521 145.15 43.8952 139.527 44.0099 133.279C44.1247 127.032 44.3686 120.174 44.6268 112.965C45.1576 98.562 45.6741 85.5216 45.8892 76.0748C45.9395 73.722 45.9825 71.5845 46.0183 69.7052C46.0542 67.8258 46.0829 66.2119 46.0901 64.8921C46.0973 63.5723 46.0901 62.5681 46.1331 61.8508V61.0617C46.1239 60.9711 46.1239 60.8798 46.1331 60.7892C46.1393 60.8799 46.1393 60.971 46.1331 61.0617C46.1331 61.2554 46.1331 61.5208 46.1331 61.8508C46.1331 62.5681 46.1331 63.5938 46.1331 64.8921C46.1331 66.1904 46.1331 67.833 46.1331 69.7052C46.1331 71.5773 46.1331 73.722 46.0614 76.0819C45.9108 85.5287 45.4373 98.5764 44.9065 112.98C44.6483 120.153 44.4259 127.046 44.261 133.286C44.096 139.527 44.0171 145.15 44.0171 149.87C44.0171 152.237 44.0171 154.368 44.0171 156.247C44.0171 158.126 44.0171 159.74 44.0745 161.06C44.1319 162.38 44.1175 163.384 44.1247 164.101C44.1247 164.431 44.1247 164.697 44.1247 164.891C44.1429 164.98 44.1549 165.072 44.1606 165.163Z" fill="#263238"/>
<path d="M16.5159 121.709C12.499 124.17 5.97875 122.426 3.23151 118.697C2.39944 117.57 0.764003 115.246 0.606198 113.525C-0.0106779 106.617 2.25598 93.9641 2.37792 88.6059C2.49986 83.2477 3.09522 73.6144 4.10661 70.2646C5.118 66.9149 8.31714 63.0343 11.8032 60.9398C15.2893 58.8453 19.0551 80.5077 19.0551 80.5077L21.5082 107.93L21.9243 116.408C21.9243 116.408 18.9475 120.217 16.5159 121.709Z" fill="#555428"/>
<path d="M12.3915 73.7435C12.5404 74.0431 12.6628 74.3551 12.7573 74.676C12.9653 75.2857 13.2594 76.1751 13.6037 77.2798C14.321 79.4819 15.1961 82.5376 16.0927 85.9447C16.9894 89.3519 17.721 92.4578 18.2088 94.7101C18.4526 95.8434 18.6391 96.7544 18.7539 97.3928C18.8347 97.7174 18.8852 98.0487 18.9045 98.3827C18.7739 98.0738 18.6776 97.7515 18.6176 97.4215C18.4383 96.7042 18.2159 95.8363 17.9505 94.7747C17.3982 92.5295 16.6307 89.438 15.7341 86.038C14.8375 82.638 13.9767 79.5823 13.3527 77.3515C13.0514 76.2971 12.8075 75.4148 12.6354 74.719C12.5213 74.4029 12.4395 74.0761 12.3915 73.7435Z" fill="#263238"/>
<path d="M34.5917 101.123L65.6076 105.656L68.1325 106.101L74 121.559C73.4958 121.991 72.8997 122.302 72.257 122.47C71.5397 122.527 55.7591 122.979 42.8478 117.111C29.9364 111.244 23.7677 108.504 23.9327 108.095C24.0976 107.686 29.8432 101.281 29.8432 101.281L34.5917 101.123Z" fill="#FFBF9D"/>
<path d="M83.612 68.0626C81.8257 64.7916 79.2206 62.0406 76.0516 60.0791L74.7748 60.7031C74.7748 61.5065 69.4095 89.7465 69.4095 89.7465L67.6162 104.451L65.6078 105.656L72.7449 123.775C72.7449 123.775 74.3517 125.124 77.766 125.124C81.1803 125.124 84.6377 116.616 84.6377 113.195C84.6377 109.773 86.4811 73.3921 83.612 68.0626Z" fill="#555428"/>
<path d="M10.9137 111.667C10.9137 111.667 10.7416 111.538 10.512 111.229C10.1852 110.786 9.91303 110.304 9.70149 109.795C8.97153 108.12 8.85243 106.242 9.36494 104.488C9.87745 102.734 10.9891 101.216 12.5061 100.197C12.9514 99.8862 13.4332 99.6309 13.9407 99.4371C14.1211 99.352 14.3156 99.301 14.5146 99.2865C13.8733 99.6283 13.2507 100.004 12.6496 100.413C11.2378 101.445 10.2066 102.914 9.7163 104.593C9.22596 106.271 9.30397 108.065 9.9382 109.694C10.2245 110.37 10.5503 111.029 10.9137 111.667Z" fill="#263238"/>
<path d="M12.6998 100.219C12.6998 100.284 11.9825 100.52 10.8923 101.166C9.48216 101.995 8.28213 103.139 7.38524 104.507C6.48836 105.875 5.91873 107.432 5.72054 109.056C5.56274 110.304 5.64881 111.093 5.58426 111.093C5.5197 111.093 5.51253 110.907 5.47666 110.548C5.4277 110.042 5.4277 109.533 5.47666 109.027C5.60683 107.342 6.16023 105.717 7.08559 104.303C8.01095 102.888 9.27834 101.73 10.7703 100.936C11.2165 100.694 11.6849 100.494 12.169 100.341C12.3373 100.269 12.5171 100.228 12.6998 100.219Z" fill="#263238"/>
<path d="M73.2325 124.091C73.1525 123.96 73.083 123.823 73.0245 123.682C72.8883 123.373 72.7089 122.964 72.4937 122.477C72.0275 121.386 71.3748 119.873 70.5786 118.008L67.7667 111.323L66.1098 107.342C65.9663 106.997 65.8157 106.624 65.6722 106.294L65.4499 105.764C65.4026 105.636 65.4026 105.496 65.4499 105.369C65.4816 105.25 65.5433 105.142 65.6292 105.054C65.9199 104.752 66.2656 104.508 66.6478 104.336C67.0151 104.164 67.391 104.011 67.7739 103.877L67.6448 104.028L67.8743 102.464C68.8714 95.8004 69.768 89.7751 70.4279 85.3637C70.765 83.2118 71.0376 81.4616 71.2385 80.1992C71.3389 79.6182 71.4178 79.1519 71.4752 78.7646C71.4978 78.6011 71.5362 78.4401 71.5899 78.284C71.5911 78.452 71.5791 78.6199 71.5541 78.7861L71.3819 80.2207C71.2098 81.4903 70.9731 83.2477 70.6646 85.4068C70.0334 89.8181 69.1727 95.8434 68.2258 102.5L67.9963 104.064V104.178L67.8815 104.214C67.1579 104.427 66.4846 104.783 65.9018 105.262C65.7942 105.398 65.7583 105.477 65.8085 105.606L66.0237 106.137C66.1743 106.488 66.3178 106.854 66.4613 107.184C67.0279 108.568 67.5731 109.902 68.0967 111.165C69.1224 113.697 70.0477 115.971 70.8296 117.886L72.6372 122.398C72.8309 122.907 72.9887 123.309 73.1106 123.624C73.1686 123.775 73.2095 123.931 73.2325 124.091Z" fill="#263238"/>
<path d="M59.3745 51.9233C59.3398 52.0237 59.2941 52.1199 59.2382 52.2102C59.1234 52.4254 58.9728 52.698 58.7863 53.0279C58.3846 53.7452 57.7892 54.7494 56.993 56.0119C56.5985 56.6359 56.1538 57.3245 55.6445 58.0562L53.9804 60.3659L52.1154 62.9697C51.4411 63.8806 50.8099 64.8275 49.9635 65.8389L49.8416 65.9895L49.7053 65.8173C48.4815 64.1539 47.3879 62.3985 46.4344 60.5667H46.7357L46.3483 61.0186C45.7171 61.7789 45.1218 62.5536 44.5766 63.3283C44.0394 64.0681 43.5984 64.8732 43.264 65.7241L43.1707 65.9895L42.9699 65.803C39.8223 62.938 36.9875 59.7473 34.5129 56.2844C33.5876 55.0005 32.899 53.9317 32.4471 53.1929C32.2176 52.8271 32.0526 52.533 31.9378 52.3321C31.8718 52.2367 31.8188 52.133 31.78 52.0237C31.863 52.1077 31.9353 52.2017 31.9952 52.3034L32.5475 53.1283C33.0353 53.8456 33.7526 54.8857 34.6994 56.1482C37.2317 59.5445 40.0906 62.6845 43.2353 65.5232L42.9412 65.6021C43.2815 64.7141 43.7373 63.8748 44.2969 63.1059C44.842 62.3097 45.4445 61.5351 46.0829 60.7676L46.4775 60.3013L46.6496 60.1005L46.7787 60.3372C47.7212 62.15 48.8003 63.8885 50.0066 65.5376H49.7483C50.4656 64.6553 51.1829 63.6583 51.8428 62.776L53.7293 60.1865L55.4293 57.8984C55.9458 57.1811 56.3977 56.5068 56.8065 55.8899C57.6243 54.649 58.2411 53.6448 58.6859 52.9634L59.188 52.1815C59.2379 52.0872 59.3007 52.0003 59.3745 51.9233Z" fill="#263238"/>
<path d="M22.6989 115.39C22.8592 115.872 22.8592 116.393 22.6989 116.875C22.528 117.466 22.2257 118.011 21.8145 118.47C21.4034 118.928 20.8941 119.287 20.3246 119.521C19.2684 120.017 18.2701 120.628 17.3478 121.343C16.9465 121.637 16.4941 121.853 16.0137 121.982C16.3884 121.671 16.7838 121.386 17.1972 121.128C18.0904 120.34 19.0931 119.685 20.174 119.184C20.6981 118.968 21.1711 118.644 21.5627 118.234C21.9543 117.824 22.2558 117.336 22.4478 116.803C22.5672 116.339 22.6512 115.867 22.6989 115.39Z" fill="#263238"/>
<path d="M78.3397 116.401C77.8038 115.826 77.3077 115.215 76.8549 114.572C75.9654 113.432 74.703 111.868 73.2684 110.197C71.8338 108.525 70.4638 107.062 69.4596 106.015C68.8928 105.475 68.3632 104.897 67.8743 104.286C68.512 104.743 69.1052 105.26 69.6461 105.828C70.7005 106.832 72.0992 108.274 73.5553 109.953C75.0114 111.631 76.2237 113.231 77.0629 114.414C77.5475 115.037 77.9748 115.702 78.3397 116.401Z" fill="#263238"/>
<path d="M28.0429 94.8392C28.0429 94.8392 23.3087 85.2633 22.3045 84.2806C21.3003 83.2979 14.859 80.1849 13.697 80.8735C12.5349 81.5621 13.1231 82.7241 14.3354 83.4127C15.5476 84.1013 19.7007 86.8772 19.7007 86.8772L20.5687 88.5629C20.5687 88.5629 17.7712 86.454 16.0354 86.1528C14.2995 85.8515 7.84382 87.4726 7.84382 87.4726C7.84382 87.4726 6.05057 90.2988 10.2683 89.7751C10.2683 89.7751 6.34467 90.7578 6.34467 91.1021C6.34467 91.4464 6.5742 93.4692 9.34297 93.1249L12.7501 93.2971L16.5016 94.8536C16.5016 94.8536 10.8995 93.6987 9.51512 94.0502C8.13073 94.4017 6.9185 95.3772 8.64719 96.238C10.3759 97.0987 13.7257 97.4502 13.905 97.5721C14.0843 97.6941 17.1902 99.4156 17.1902 99.4156C17.1902 99.4156 21.9817 108.023 23.2514 108.131C24.521 108.238 29.829 101.316 29.829 101.316L28.0429 94.8392Z" fill="#FFBF9D"/>
<path d="M20.253 92.5439C18.7549 91.5029 17.0946 90.7176 15.3395 90.2199C13.557 89.8445 11.7246 89.767 9.91675 89.9904C10.4175 89.768 10.9548 89.6391 11.502 89.6102C12.8167 89.4569 14.1482 89.542 15.4328 89.8612C16.7141 90.1798 17.9286 90.7238 19.0192 91.468C19.491 91.7507 19.9088 92.115 20.253 92.5439Z" fill="#FF9A6C"/>
<path d="M22.6416 90.4781C22.5555 90.5427 22.0534 90.0549 21.3719 89.5385C20.6905 89.022 20.0951 88.649 20.1382 88.5558C20.1812 88.4625 20.8555 88.6849 21.5728 89.2372C22.2901 89.7895 22.6918 90.4136 22.6416 90.4781Z" fill="#FF9A6C"/>
<path d="M15.4686 99.2506C21.0084 97.6494 26.422 95.6402 31.6652 93.2397C34.8409 91.5535 37.8091 89.5025 40.5095 87.1283L47.8402 95.1908C47.8402 95.1908 24.5926 113.711 21.1496 116.38C21.1496 116.38 12.083 117.384 11.3728 107.908C10.8922 101.589 15.4686 99.2506 15.4686 99.2506Z" fill="#FFBF9D"/>
<path d="M40.5095 87.1283C40.5095 87.1283 40.4019 82.9106 40.2154 82.179C40.0985 81.0606 40.0985 79.9332 40.2154 78.8148C40.2584 78.6714 41.5065 73.9731 41.5065 73.9731C41.5065 73.9731 41.6428 73.055 43.5293 74.8482C45.4158 76.6414 44.4546 79.6397 44.4546 79.6397L45.0213 81.5477C45.0213 81.5477 50.2074 78.406 50.3436 78.3127C50.4799 78.2195 55.9242 72.5026 57.5166 71.6275C58.0774 71.2784 58.6737 70.9899 59.2955 70.7668C59.559 70.6835 59.8409 70.6781 60.1074 70.7512C60.3739 70.8243 60.6136 70.9728 60.7977 71.1789C60.9818 71.385 61.1024 71.6398 61.1451 71.9128C61.1879 72.1858 61.1509 72.4654 61.0385 72.7178C60.9879 72.8539 60.9178 72.982 60.8305 73.098C60.3428 73.7722 63.1976 70.5301 64.2879 69.282C64.4754 69.0616 64.7055 68.8813 64.9643 68.7519C65.2232 68.6225 65.5054 68.5466 65.7942 68.5288C66.4685 68.5288 67.4584 69.0309 67.0495 70.5588C67.0495 70.5588 68.5271 70.2431 67.9748 71.9503C67.4225 73.6575 63.0039 82.3368 62.4086 83.3482C61.8132 84.3596 59.1234 87.9819 58.571 88.3692C58.0187 88.7566 47.8618 95.2123 47.8618 95.2123L40.9255 92.422L40.5095 87.1283Z" fill="#FFBF9D"/>
<path d="M53.2988 81.8992C53.5191 81.3662 53.8379 80.8795 54.2384 80.4646C54.8912 79.654 55.9241 78.6426 56.9426 77.4591C57.9612 76.2755 58.8004 75.092 59.5034 74.3317C59.8505 73.8829 60.2699 73.4951 60.7443 73.184C60.4258 73.6431 60.0784 74.0816 59.7042 74.4966C59.0587 75.3 58.2696 76.462 57.2296 77.6958C56.1895 78.9295 55.135 79.8477 54.4393 80.6367C53.7435 81.4257 53.349 81.9279 53.2988 81.8992Z" fill="#FF9A6C"/>
<path d="M67.0279 70.5588C66.6621 71.319 66.2199 72.04 65.708 72.7107C64.8473 73.9946 63.5561 75.6946 62.3941 77.7318C61.3702 79.4816 60.1369 81.1003 58.7216 82.552C58.1836 83.1115 57.7317 83.5419 57.4089 83.8288C57.0861 84.1157 56.8925 84.2663 56.8709 84.2448C56.8494 84.2233 57.5093 83.5275 58.5279 82.3727C59.8676 80.8887 61.0547 79.2738 62.0713 77.5524C63.1019 75.8064 64.2448 74.1291 65.4929 72.5313C65.9689 71.8468 66.4813 71.1884 67.0279 70.5588Z" fill="#FF9A6C"/>
<path d="M30.4243 93.8063C29.7641 94.2198 29.0679 94.5728 28.3441 94.8608C27.0315 95.4633 25.1952 96.2308 23.1294 97.0127C21.0636 97.7945 19.1627 98.3899 17.7712 98.77C17.0286 99.0097 16.2648 99.1778 15.4902 99.2721C16.2103 98.9854 16.9483 98.7458 17.6995 98.5548C19.0623 98.1101 20.9416 97.4646 23.0003 96.7042C25.0589 95.9439 26.9024 95.2051 28.2365 94.6671C28.9439 94.3273 29.6751 94.0396 30.4243 93.8063Z" fill="#FF9A6C"/>
<path d="M42.353 99.5591C42.1396 99.8225 41.8991 100.063 41.6357 100.276C41.1407 100.735 40.4019 101.374 39.4838 102.141C37.6331 103.684 35.0222 105.728 32.1171 108.002L24.6644 113.74C23.7534 114.457 22.9859 115.024 22.3977 115.469C22.131 115.697 21.8428 115.899 21.537 116.071C21.7698 115.809 22.0268 115.569 22.3045 115.354C22.8138 114.909 23.5669 114.292 24.4994 113.532C26.3716 112.011 28.9825 109.946 31.8876 107.693L39.3188 101.955L41.5568 100.19C41.8064 99.9607 42.0725 99.7497 42.353 99.5591Z" fill="#FF9A6C"/>
<path d="M82.1773 282.542L82.5431 299.685C82.5431 299.685 100.095 305.072 100.476 308.235L67.2647 310.136L65.6005 283.445L82.1773 282.542Z" fill="#263238"/>
<path d="M67.2575 310.136L67.193 307.439L99.0625 306.621C99.0625 306.621 100.576 307.181 100.497 308.235L67.2575 310.136Z" fill="#455A64"/>
<path d="M83.0739 299.484C83.0739 299.649 82.2705 299.764 81.503 300.331C80.7355 300.897 80.3482 301.607 80.1975 301.55C80.0469 301.493 80.1975 300.546 81.1731 299.871C82.1486 299.197 83.1026 299.333 83.0739 299.484Z" fill="white"/>
<path d="M86.6387 300.725C86.6818 300.883 86.0003 301.199 85.4839 301.916C84.9674 302.633 84.8598 303.35 84.6948 303.35C84.5299 303.35 84.3792 302.447 85.032 301.564C85.6847 300.682 86.6244 300.574 86.6387 300.725Z" fill="white"/>
<path d="M88.8553 304.785C88.7119 304.828 88.4393 304.025 88.8051 303.114C89.171 302.203 89.9098 301.808 89.9815 301.937C90.0532 302.066 89.6157 302.569 89.3288 303.322C89.0418 304.075 89.0203 304.756 88.8553 304.785Z" fill="white"/>
<path d="M82.5574 295.589C82.5001 295.74 81.7397 295.589 80.8288 295.675C79.9178 295.761 79.2148 296.12 79.1216 295.984C79.0283 295.847 79.6883 295.231 80.7642 295.109C81.8401 294.987 82.6292 295.453 82.5574 295.589Z" fill="white"/>
<path d="M26.7948 280.081L27.6627 301.12L23.2872 317.919C23.215 318.212 23.2053 318.517 23.2588 318.814C23.3122 319.111 23.4276 319.394 23.5974 319.643C23.7672 319.893 23.9877 320.104 24.2444 320.263C24.5011 320.422 24.7884 320.525 25.0876 320.566C25.4384 320.628 25.7989 320.609 26.141 320.509C26.4831 320.41 26.7976 320.233 27.0602 319.992C30.3669 316.871 42.4892 305.359 42.3314 303.824C42.1593 302.045 42.9842 281.588 42.9842 281.588L26.7948 280.081Z" fill="#263238"/>
<path d="M25.0876 320.566L42.3027 302.404V303.293C42.3143 304.069 42.0412 304.821 41.5352 305.409C40.158 306.987 36.2702 311.284 27.1032 319.992C26.8339 320.243 26.5086 320.426 26.1542 320.526C25.7998 320.626 25.4268 320.639 25.066 320.566H25.0876Z" fill="#455A64"/>
<path d="M29.9724 311.32C29.8433 311.377 29.334 310.279 28.0142 309.698C26.6944 309.117 25.5036 309.397 25.4678 309.261C25.4319 309.125 25.726 309.046 26.2425 308.974C26.9182 308.89 27.6041 308.997 28.2222 309.282C28.8342 309.555 29.3547 309.998 29.7214 310.559C29.9868 310.99 30.0226 311.298 29.9724 311.32Z" fill="white"/>
<path d="M31.1272 307.188C31.0052 307.245 30.4888 306.148 29.1689 305.567C27.8491 304.986 26.6584 305.258 26.6297 305.129C26.601 305 26.8879 304.914 27.3972 304.835C28.0736 304.757 28.7583 304.867 29.377 305.151C29.9903 305.421 30.5114 305.865 30.8761 306.428C31.1415 306.858 31.1846 307.166 31.1272 307.188Z" fill="white"/>
<path d="M28.4445 314.153C28.3441 314.246 27.6268 313.565 26.4791 313.271C25.3314 312.976 24.3631 313.156 24.3272 313.027C24.2913 312.898 25.3171 312.46 26.6154 312.826C27.9137 313.192 28.5593 314.095 28.4445 314.153Z" fill="white"/>
<path d="M33.1357 301.263C33.0783 301.392 31.8517 300.919 30.2665 300.876C28.6812 300.833 27.4403 301.22 27.3973 301.084C27.3542 300.947 28.588 300.366 30.2665 300.417C31.9449 300.467 33.2002 301.163 33.1357 301.263Z" fill="white"/>
<path d="M34.4195 33.1517C32.8739 29.8347 31.6164 26.3909 30.6609 22.8585C29.7185 19.3076 29.6741 15.5781 30.5318 12.0058C30.6752 11.475 31.9664 7.84543 32.5402 7.84543C32.9347 7.84543 32.2318 11.1809 32.4613 11.5036C34.6634 14.5737 35.5528 18.4399 35.6102 22.2201C35.6254 25.8956 35.2357 29.5615 34.4482 33.1517" fill="#263238"/>
<path d="M62.8103 15.3986C62.2992 11.3173 60.2729 7.5771 57.1334 4.91982C53.9938 2.26253 49.9702 0.882217 45.8605 1.05264H45.0069C35.8829 1.9636 31.5648 10.2269 32.7268 19.3222L36.0838 49.4487L46.5061 60.036L56.6415 50.123C56.4191 47.5479 56.3618 46.7732 56.3833 46.7732C56.4048 46.7732 65.12 45.0373 64.8617 36.2432C64.747 31.9968 63.7786 23.2889 62.8103 15.3986Z" fill="#FFBF9D"/>
<path d="M56.3904 46.7731C52.33 46.9293 48.3098 45.9187 44.806 43.8609C44.806 43.8609 47.833 50.3596 56.5697 49.2047L56.3904 46.7731Z" fill="#FF9A6C"/>
<path d="M60.0845 23.461C60.1024 23.7882 59.9916 24.1094 59.7758 24.3561C59.56 24.6027 59.2564 24.7551 58.9297 24.7808C58.7702 24.7997 58.6085 24.7865 58.4542 24.742C58.2998 24.6975 58.156 24.6226 58.031 24.5217C57.906 24.4208 57.8025 24.2959 57.7265 24.1544C57.6504 24.0129 57.6035 23.8576 57.5884 23.6977C57.5724 23.3717 57.6841 23.0523 57.8997 22.8073C58.1153 22.5622 58.4178 22.4108 58.7432 22.3851C58.9025 22.3641 59.0644 22.3756 59.2191 22.4189C59.3738 22.4622 59.5182 22.5363 59.6435 22.6368C59.7688 22.7373 59.8725 22.8622 59.9483 23.0038C60.0241 23.1455 60.0704 23.301 60.0845 23.461Z" fill="#263238"/>
<path d="M60.7373 19.7024C60.5867 19.8745 59.6111 19.2074 58.2555 19.272C56.8998 19.3366 55.9458 20.0467 55.7951 19.8889C55.6445 19.7311 55.8597 19.5159 56.2829 19.1716C56.8489 18.7365 57.5351 18.4861 58.2483 18.4543C58.9502 18.4229 59.6437 18.6164 60.228 19.0066C60.6584 19.3007 60.809 19.5948 60.7373 19.7024Z" fill="#263238"/>
<path d="M48.4643 24.1066C48.4859 24.4385 48.375 24.7654 48.1557 25.0156C47.9365 25.2657 47.627 25.4186 47.2951 25.4408C47.1361 25.4597 46.975 25.4467 46.8211 25.4026C46.6672 25.3586 46.5236 25.2843 46.3987 25.1841C46.2739 25.084 46.1702 24.9599 46.0938 24.8193C46.0174 24.6786 45.9698 24.5241 45.9538 24.3648C45.9378 24.0369 46.0503 23.7157 46.2672 23.4693C46.4841 23.2229 46.7885 23.0707 47.1158 23.045C47.2742 23.025 47.435 23.0367 47.5889 23.0794C47.7428 23.1221 47.8866 23.1949 48.0121 23.2937C48.1376 23.3925 48.2422 23.5152 48.3198 23.6547C48.3974 23.7943 48.4465 23.9479 48.4643 24.1066Z" fill="#263238"/>
<path d="M48.1846 20.4196C48.0339 20.5845 47.0584 19.9246 45.7027 19.982C44.347 20.0394 43.393 20.7567 43.2424 20.5989C43.0918 20.4411 43.307 20.2259 43.7302 19.8816C44.2946 19.4436 44.9817 19.1928 45.6955 19.1643C46.3962 19.1348 47.0885 19.3254 47.6753 19.7094C48.1057 20.0466 48.2563 20.3335 48.1846 20.4196Z" fill="#263238"/>
<path d="M53.1554 30.383C53.849 30.1293 54.5721 29.9654 55.3073 29.8952C55.6516 29.845 55.9744 29.7589 56.0246 29.5222C56.0405 29.165 55.9453 28.8116 55.752 28.5108C55.3934 27.6931 55.0347 26.8252 54.6258 25.9285C53.055 22.2416 51.9001 19.2146 52.0507 19.1501C52.2014 19.0855 53.5929 22.0193 55.1638 25.7062C55.544 26.61 55.8811 27.4779 56.2469 28.3028C56.4849 28.7094 56.5689 29.188 56.4836 29.6513C56.44 29.7759 56.3681 29.8887 56.2735 29.9808C56.1789 30.0729 56.0642 30.1418 55.9385 30.1821C55.7498 30.2398 55.5546 30.2736 55.3575 30.2825C54.6304 30.4069 53.8907 30.4406 53.1554 30.383Z" fill="#263238"/>
<path d="M47.6537 13.921C47.0009 14.3226 42.8191 14.3226 44.7271 14.2007C43.2208 14.3011 41.987 14.7243 41.8005 14.3872C41.7216 14.2222 41.944 13.8851 42.4461 13.548C43.1069 13.1305 43.8612 12.884 44.641 12.8307C45.413 12.7589 46.1906 12.8848 46.9005 13.1965C47.4457 13.4547 47.7469 13.7488 47.6537 13.921Z" fill="#263238"/>
<path d="M60.5937 17.5505C60.3283 17.8732 59.2165 17.6222 57.8895 17.6796C56.5625 17.737 55.465 18.0239 55.1852 17.6796C55.0633 17.5289 55.1852 17.2133 55.6945 16.8977C56.3504 16.5074 57.0947 16.2901 57.8575 16.2663C58.6203 16.2425 59.3767 16.4128 60.0557 16.7614C60.5363 17.077 60.7084 17.3855 60.5937 17.5505Z" fill="#263238"/>
<path d="M33.7239 25.7778C33.5732 25.7205 27.6125 24.2428 28.0501 30.2466C28.4876 36.2504 34.4268 34.5504 34.4268 34.3926C34.4268 34.2348 33.7239 25.7778 33.7239 25.7778Z" fill="#FFBF9D"/>
<path d="M32.4254 32.255C32.4254 32.255 32.325 32.3339 32.1529 32.4272C32.0339 32.4907 31.9034 32.5297 31.7692 32.542C31.6349 32.5543 31.4995 32.5397 31.371 32.4989C30.7183 32.3124 30.1157 31.3512 30.0081 30.2681C29.9552 29.7542 30.0164 29.2349 30.1875 28.7475C30.2301 28.5573 30.3173 28.3801 30.4421 28.2304C30.5668 28.0807 30.7254 27.9629 30.9047 27.8867C31.0218 27.8461 31.1495 27.8483 31.2651 27.893C31.3806 27.9376 31.4766 28.0218 31.536 28.1306C31.6292 28.2956 31.6005 28.4175 31.6364 28.4247C31.6723 28.4318 31.7583 28.3099 31.6938 28.066C31.6457 27.9213 31.5527 27.7957 31.4284 27.7074C31.2529 27.5985 31.0428 27.5601 30.8402 27.5998C30.5952 27.6629 30.3713 27.7898 30.1912 27.9674C30.011 28.145 29.8811 28.3671 29.8145 28.6112C29.5967 29.1497 29.513 29.7331 29.5706 30.3112C29.6997 31.5162 30.4026 32.6065 31.2921 32.793C31.4559 32.827 31.6253 32.824 31.7878 32.7843C31.9504 32.7446 32.102 32.6691 32.2318 32.5635C32.4254 32.3985 32.4469 32.2622 32.4254 32.255Z" fill="#FF9A6C"/>
<path d="M58.1191 5.76526C59.0444 5.14838 55.8739 2.24333 53.3993 1.36105C49.655 0.019706 44.0744 -0.532613 40.825 0.643755C36.9158 2.07835 33.7525 4.3737 32.0453 8.18255C30.4129 12.0513 29.8409 16.2851 30.3884 20.4483C30.4447 21.7247 30.8409 22.9629 31.536 24.0348C32.4829 25.2901 34.1542 25.993 34.2402 27.8293C34.2501 28.5006 34.5262 29.1404 35.0077 29.6082C36.2056 30.6842 37.4537 29.4791 37.9845 28.3243C39.1107 25.8711 39.0246 23.0521 38.917 20.3551C38.9479 18.4302 38.662 16.5133 38.0706 14.6813C37.6976 13.7057 37.1453 12.7948 36.8225 11.8121C36.6318 11.3233 36.549 10.7991 36.58 10.2754C36.6109 9.75162 36.7548 9.24078 37.0018 8.77791C37.136 8.58967 37.2847 8.41219 37.4466 8.2471C38.224 7.449 39.1996 6.87171 40.2733 6.57428C41.3471 6.27685 42.4806 6.26995 43.5579 6.55428C47.0368 7.47242 52.9474 8.78508 54.3604 7.51546C56.3904 5.68635 56.8208 4.56737 56.8208 4.56737L58.1191 5.76526Z" fill="#263238"/>
<path d="M53.4854 33.331L50.2289 32.75C49.9786 32.6744 49.7116 32.6744 49.4614 32.75C49.3273 32.8226 49.2116 32.9251 49.1234 33.0494C49.0351 33.1738 48.9765 33.3167 48.9521 33.4673C48.8729 33.8408 48.8768 34.2272 48.9636 34.5991C49.0503 34.971 49.2178 35.3192 49.4542 35.6192C49.9244 36.2157 50.5392 36.6824 51.2403 36.9748C51.5255 37.1386 51.8405 37.2439 52.1669 37.2846C52.4932 37.3252 52.8244 37.3004 53.1411 37.2116C53.4013 37.0958 53.6338 36.9259 53.823 36.7131C54.0123 36.5004 54.154 36.2497 54.2386 35.9778C54.3938 35.3334 54.4828 34.6749 54.504 34.0124C54.5127 33.8692 54.4675 33.7279 54.3772 33.6163C54.2869 33.5048 54.1581 33.4311 54.0162 33.4099L53.4854 33.331Z" fill="#FF9A6C"/>
<path d="M53.4854 37.1541C53.4854 37.1541 53.3276 37.2617 53.012 37.3335C52.5576 37.4264 52.0891 37.4264 51.6348 37.3335C50.945 37.1993 50.3078 36.8708 49.7985 36.3866C49.1772 35.7863 48.7798 34.9916 48.6723 34.1343C48.6152 33.8999 48.6132 33.6554 48.6668 33.4201C48.7203 33.1848 48.8278 32.9652 48.9808 32.7786C49.1668 32.6153 49.4076 32.5282 49.655 32.5347C49.8596 32.5343 50.0638 32.5535 50.2647 32.5921L52.2373 32.9364C52.8495 33.0092 53.4527 33.1438 54.0377 33.3381C53.4199 33.3574 52.8017 33.3092 52.1943 33.1946L50.2145 32.9364C49.8487 32.879 49.447 32.836 49.2318 33.044C49.1271 33.1935 49.0556 33.3636 49.0222 33.5431C48.9888 33.7225 48.9942 33.907 49.0382 34.0841C49.1439 34.8601 49.4959 35.5817 50.0424 36.1427C50.4968 36.5985 51.0674 36.921 51.6922 37.0752C52.2822 37.194 52.8872 37.2206 53.4854 37.1541Z" fill="#263238"/>
</svg>
