<svg width="128" height="321" viewBox="0 0 128 321" fill="none" xmlns="http://www.w3.org/2000/svg">
<path d="M116.425 295.774L101.962 297.319C101.962 297.319 78.7472 222.033 73.1858 203.451C67.6244 184.87 64.8185 145.284 64.8185 145.284C64.2634 146.879 63.4055 149.887 62.2952 153.964C53.1609 187.777 27.6149 295.744 27.6149 295.744L15.9976 291.202C15.9976 291.202 22.9619 208.054 26.2119 192.288C29.4619 176.523 50.6678 101.58 50.6678 101.58H89.0221C89.0221 101.58 92.7364 182.054 95.9864 200.333C99.2364 218.611 116.425 295.774 116.425 295.774Z" fill="#263238"/>
<path d="M45.6412 55.8783C45.6412 55.8783 41.9672 70.3924 36.3554 81.8684C30.5013 93.839 22.6387 102.862 19.1162 107.101L12.4849 112.148L10.1029 119.577L18.8537 122.494C18.8537 122.494 26.0098 115.6 25.485 111.391L43.784 89.2466L53.7864 62.5197L45.6412 55.8783Z" fill="#FFBF9D"/>
<path d="M79.6452 1.76852C82.7842 3.51465 84.278 5.80582 86.7105 8.49062C91.5954 14.0183 97.3544 18.7066 103.758 22.3688C108.34 24.9022 113.276 26.719 117.969 29.0304C120.15 29.948 122.066 31.3987 123.541 33.2493C124.486 34.7865 125.095 36.5065 125.327 38.2959C126.972 47.7028 124.318 58.0383 117.434 64.6797C115.242 66.86 112.585 68.5162 109.663 69.5244C103.98 71.3816 97.8231 70.13 91.8883 69.3326C88.0765 68.9582 84.2888 68.3684 80.5435 67.5663C76.7795 66.7549 73.3076 64.9335 70.5008 62.2976C67.8574 59.4809 66.157 55.9108 65.6358 52.0833C65.1307 48.2723 65.2946 44.4023 66.1203 40.6477C66.8571 36.9031 68.0077 33.219 68.361 29.4038C68.7143 25.5886 68.1995 21.5311 65.9285 18.4526C64.677 16.757 60.8012 15.4247 59.8726 13.5271C57.8539 9.4192 61.215 4.06978 65.222 1.8089C67.4411 0.62804 69.915 0.00709663 72.4286 6.04716e-05C74.9423 -0.00697569 77.4196 0.600107 79.6452 1.76852V1.76852Z" fill="#263238"/>
<path d="M103.375 56.5546L90.8389 65.3559L88.8909 103.71C76.8395 105.991 50.6678 101.54 50.6678 101.54L47.6398 63.1859L45.8533 61.8738L41.6243 58.7853C41.6243 58.7853 45.5404 47.8442 47.8114 45.4016C50.0824 42.9591 62.9513 40.8799 62.9513 40.8799C62.9513 40.8799 87.175 43.2518 92.5749 45.0484C97.9748 46.845 103.375 56.5546 103.375 56.5546Z" fill="#410002"/>
<path d="M99.2465 59.4918L107.866 75.2372C107.866 75.2372 114.931 66.2845 118.555 61.5306L116.627 55.0205L119.958 47.1376L125.731 47.6726C126.987 50.1964 127.424 53.0489 126.983 55.833C126.542 58.6171 125.243 61.1944 123.268 63.2061C123.268 63.2061 117.969 78.2551 108.3 83.8871C100.942 88.1767 92.6658 64.1145 92.6658 64.1145L99.2465 59.4918Z" fill="#FFBF9D"/>
<path d="M77.122 25.972C75.4466 30.7461 73.1655 39.6181 76.1127 43.4031C76.1127 43.4031 74.0941 48.1973 64.9093 46.865C54.816 45.4015 60.872 41.1725 60.872 41.1725C66.5444 40.6678 66.9985 36.58 66.6049 32.6134L77.122 25.972Z" fill="#FFBF9D"/>
<path opacity="0.2" d="M72.8224 28.6872L66.5747 32.5731C66.6872 33.4972 66.7142 34.4297 66.6554 35.3588C68.7952 35.3588 72.0048 33.4714 72.5499 31.3215C72.8025 30.4677 72.8949 29.5746 72.8224 28.6872V28.6872Z" fill="black"/>
<path d="M80.3317 13.9005C80.1602 22.2072 80.251 25.7197 76.2238 30.1405C70.1679 36.7819 60.0746 34.743 57.7128 26.5372C55.6942 19.1591 56.2997 6.80497 64.2936 3.19159C67.0268 1.94223 70.1443 1.82942 72.9607 2.87798C75.777 3.92654 78.0617 6.05064 79.3123 8.78325C80.0538 10.3838 80.4033 12.138 80.3317 13.9005Z" fill="#FFBF9D"/>
<path d="M61.6896 4.87728C61.6189 5.03878 71.5103 19.7042 80.2712 19.896C82.4615 17.4535 82.8551 8.79346 79.8574 6.56285C76.8597 4.33225 74.2254 -0.2198 70.8946 0.113276C65.8985 0.607845 61.6896 4.87728 61.6896 4.87728Z" fill="#263238"/>
<path d="M67.1903 16.6358C67.1903 17.3121 66.8774 17.8773 66.4434 17.8975C66.0094 17.9177 65.6158 17.3727 65.5754 16.7368C65.535 16.1009 65.8883 15.4953 66.3223 15.4751C66.7563 15.4549 67.1802 15.9697 67.1903 16.6358Z" fill="#263238"/>
<path d="M59.57 16.9387C59.57 17.6149 59.2571 18.1701 58.8231 18.1802C58.3891 18.1903 57.9954 17.6654 57.9551 17.0194C57.9147 16.3735 58.2679 15.7881 58.712 15.7679C59.1561 15.7477 59.5498 16.2624 59.57 16.9387Z" fill="#263238"/>
<path d="M58.9239 15.7678L57.2787 15.364C57.2787 15.364 58.1669 16.5954 58.9239 15.7678Z" fill="#263238"/>
<path d="M61.972 18.1094C61.4256 19.67 60.6719 21.1502 59.7313 22.5101C60.0859 22.7397 60.4859 22.8901 60.904 22.9511C61.322 23.0121 61.7483 22.9821 62.1537 22.8633L61.972 18.1094Z" fill="#ED893E"/>
<path d="M65.9287 25.3161C65.5955 25.3785 65.2581 25.4156 64.9194 25.4271C64.8692 25.4274 64.8207 25.4089 64.7833 25.3753C64.746 25.3417 64.7226 25.2954 64.7175 25.2454C64.7173 25.1925 64.7368 25.1415 64.7723 25.1023C64.8078 25.063 64.8567 25.0385 64.9093 25.0335C65.7506 25.0219 66.5772 24.811 67.3211 24.418C68.0651 24.025 68.7052 23.4611 69.1888 22.7726C69.2177 22.7293 69.2622 22.6989 69.3129 22.6876C69.3637 22.6763 69.4169 22.6851 69.4613 22.712C69.4835 22.7244 69.5028 22.7413 69.518 22.7615C69.5333 22.7818 69.5441 22.8051 69.5498 22.8298C69.5555 22.8545 69.556 22.8802 69.5512 22.9051C69.5464 22.93 69.5364 22.9536 69.5219 22.9745C69.1116 23.5867 68.5818 24.1097 67.9644 24.5121C67.3469 24.9145 66.6545 25.1879 65.9287 25.3161V25.3161Z" fill="#263238"/>
<path d="M82.8753 21.4403C82.6261 22.196 82.2304 22.8951 81.7108 23.4978C81.1913 24.1005 80.558 24.5949 79.8473 24.9527C77.9296 25.8914 76.5771 24.2765 76.8193 22.278C77.001 20.4713 78.2223 17.7966 80.2914 17.6957C80.7456 17.6785 81.1968 17.7756 81.6037 17.9781C82.0106 18.1806 82.3601 18.482 82.6203 18.8546C82.8804 19.2273 83.0429 19.6593 83.0927 20.1111C83.1426 20.5628 83.0782 21.0198 82.9055 21.4403H82.8753Z" fill="#FFBF9D"/>
<path d="M70.2082 14.9705C70.124 14.9844 70.0374 14.9727 69.96 14.9366C69.8825 14.9006 69.8178 14.842 69.7742 14.7686C68.886 13.1638 66.5444 12.9013 66.5141 12.8913C66.4105 12.8762 66.3167 12.8214 66.2527 12.7386C66.1887 12.6557 66.1594 12.5512 66.1709 12.4471C66.176 12.3953 66.1912 12.3451 66.2158 12.2992C66.2404 12.2533 66.2739 12.2128 66.3142 12.18C66.3546 12.1471 66.401 12.1226 66.4509 12.1078C66.5008 12.093 66.5532 12.0883 66.6049 12.0939C66.716 12.0939 69.3906 12.4169 70.4706 14.385C70.5222 14.4749 70.5363 14.5814 70.5098 14.6815C70.4834 14.7817 70.4185 14.8673 70.3293 14.92V14.92L70.2082 14.9705Z" fill="#263238"/>
<path d="M57.1477 13.4968C57.0794 13.5122 57.0082 13.508 56.9422 13.4848C56.8762 13.4616 56.818 13.4203 56.7743 13.3656C56.7121 13.2864 56.6836 13.1858 56.6949 13.0857C56.7063 12.9856 56.7565 12.894 56.8348 12.8307V12.8307C57.292 12.3927 57.8485 12.072 58.4568 11.8963C59.065 11.7205 59.7068 11.6948 60.3271 11.8214C60.4252 11.8497 60.5084 11.915 60.5592 12.0035C60.6101 12.092 60.6245 12.1968 60.5996 12.2957V12.2957C60.5867 12.3463 60.5639 12.3938 60.5325 12.4355C60.501 12.4772 60.4616 12.5122 60.4165 12.5385C60.3715 12.5648 60.3216 12.5818 60.2698 12.5887C60.2181 12.5955 60.1655 12.592 60.1151 12.5783V12.5783C59.6264 12.4762 59.12 12.4964 58.641 12.6373C58.1621 12.7782 57.7254 13.0353 57.3698 13.3858C57.3093 13.4452 57.2316 13.4841 57.1477 13.4968Z" fill="#263238"/>
<path d="M66.5546 15.4751L64.9094 15.0714C64.9094 15.0714 65.7976 16.3028 66.5546 15.4751Z" fill="#263238"/>
<path d="M26.2117 294.22L26.0401 295.068L25.162 299.388L23.4361 307.795L15.7349 305.141L17.4205 296.652L18.2986 292.211L21.5385 293.029L21.5688 293.039L26.2117 294.22Z" fill="#FFBF9D"/>
<path d="M115.698 308.774L107.937 310.046L106.372 301.84L105.656 298.086H113.922L114.023 298.691L114.538 301.84L115.698 308.774Z" fill="#FFBF9D"/>
<path opacity="0.2" d="M64.8185 133.616V145.284C64.2633 146.879 63.4054 149.887 62.2952 153.964L64.8185 133.616Z" fill="black"/>
<path d="M119.201 315.799L117.455 308.795C117.376 308.489 117.187 308.223 116.925 308.048C116.662 307.873 116.344 307.801 116.032 307.846L106.504 309.198C106.265 309.232 106.041 309.334 105.858 309.491C104.697 310.5 100.165 314.225 97.5408 315.375C94.5128 316.708 93.4026 317.152 93.564 318.262C93.7255 319.372 94.1697 320.422 95.2799 320.604C96.2388 320.755 113.155 318.141 118.161 317.354C118.335 317.326 118.501 317.264 118.649 317.169C118.797 317.074 118.924 316.95 119.022 316.804C119.119 316.658 119.186 316.493 119.216 316.321C119.247 316.148 119.242 315.97 119.201 315.799V315.799Z" fill="#263238"/>
<path d="M24.8694 314.851L25.8787 307.715C25.9161 307.396 25.8334 307.074 25.6469 306.813C25.4603 306.552 25.1831 306.37 24.8694 306.302L15.5029 304.061C15.2726 303.991 15.0266 303.991 14.7963 304.061C13.3631 304.535 7.73107 306.362 4.90497 306.473C1.60448 306.594 0.403382 306.594 0.140958 307.674C-0.121466 308.754 -0.0911749 309.915 0.877775 310.49C1.84673 311.066 18.3996 314.79 23.3352 315.9C23.5055 315.94 23.682 315.943 23.8538 315.911C24.0256 315.879 24.1887 315.811 24.333 315.713C24.4772 315.614 24.5994 315.486 24.6917 315.338C24.7841 315.189 24.8445 315.024 24.8694 314.851V314.851Z" fill="#263238"/>
<path opacity="0.2" d="M114.538 301.84H106.372L105.656 298.086H109.309L114.023 298.691L114.538 301.84Z" fill="black"/>
<path d="M100.306 295.027H118.242V300.114L101.194 299.479L100.306 295.027Z" fill="#410002"/>
<path opacity="0.2" d="M26.0402 295.068L25.1621 299.388L17.4206 296.652L18.2987 292.211L21.5386 293.029L21.5689 293.039L26.0402 295.068Z" fill="black"/>
<path d="M29.3105 299.337L30.9456 294.967L14.8368 288.871L14.5845 293.705L29.3105 299.337Z" fill="#410002"/>
<path d="M56.3199 97.5735L56.108 102.62L55.0986 102.449L55.3005 97.5432L56.3199 97.5735Z" fill="#410002"/>
<path d="M63.3851 97.9571L63.1429 103.609L62.1335 103.488L62.3657 97.9066L63.3851 97.9571Z" fill="#410002"/>
<path d="M73.2058 98.502L72.9635 104.427H71.9542L72.1965 98.4818L73.2058 98.502Z" fill="#410002"/>
<path d="M81.7245 98.9664L81.5025 104.447H80.4932L80.7253 98.8655L81.7245 98.9664Z" fill="#410002"/>
</svg>
