<svg width="111" height="63" viewBox="0 0 111 63" fill="none" xmlns="http://www.w3.org/2000/svg">
<path d="M50.5058 9.38084C50.0923 8.58218 49.7676 7.74906 49.5364 6.89353C49.3051 6.03109 49.3646 5.1267 49.7075 4.2945C49.8835 3.88218 50.1691 3.51437 50.5395 3.2228C50.91 2.93124 51.3541 2.72467 51.8338 2.62091C52.4285 2.51646 53.0666 2.60391 53.6369 2.41687C54.2968 2.19826 54.7367 1.65659 55.25 1.22666C56.0619 0.553131 57.0953 0.132252 58.1964 0.0267307C58.7712 -0.0458143 59.3572 0.030034 59.8855 0.245344C60.1468 0.355626 60.3728 0.523249 60.5423 0.73262C60.7118 0.941991 60.8193 1.18631 60.8549 1.44284C61.5182 1.21479 62.2121 1.06535 62.9188 0.998333C63.633 0.933832 64.347 1.12315 64.9066 1.52543C65.1781 1.73083 65.3691 2.00851 65.4516 2.31791C65.5342 2.6273 65.504 2.95221 65.3655 3.24516C65.6665 3.11251 66.0118 3.08428 66.3348 3.16592C66.6577 3.24755 66.9354 3.43327 67.1143 3.68725C67.2811 3.95007 67.3593 4.25043 67.3395 4.55211C67.3198 4.8538 67.2029 5.14393 67.003 5.38755C66.5061 5.91884 65.8139 6.27447 65.0505 6.39073C64.3879 6.47331 63.6167 6.52918 62.9839 6.33972" fill="#263238"/>
<path d="M52.1271 26.4932L61.6316 25.8131C61.6913 24.8196 61.6126 20.9794 61.6126 20.9794C61.6126 20.9794 65.5665 20.428 65.6154 16.8913C65.6642 13.3547 64.9799 5.2321 64.9799 5.2321C62.7318 4.36754 60.2663 4.05558 57.8383 4.32844C55.4102 4.6013 53.1077 5.4491 51.1685 6.78424L50.5819 7.18746L52.1271 26.4932Z" fill="#FFBF9D"/>
<path d="M61.6208 20.9283C59.7934 20.9595 57.9971 20.5029 56.4612 19.6167C56.4612 19.6167 57.6805 22.1623 61.6208 21.8441V20.9283Z" fill="#1E1E1E"/>
<path d="M51.0707 10.8528C51.0055 10.8261 48.3551 10.1241 48.442 12.5531C48.5289 14.9821 51.2228 14.3967 51.2255 14.3263C51.2282 14.2558 51.0707 10.8528 51.0707 10.8528Z" fill="#FFBF9D"/>
<path d="M50.3673 13.4251C50.3673 13.4251 50.3212 13.4543 50.2424 13.4907C50.1322 13.5361 50.0066 13.5413 49.8921 13.5053C49.6015 13.4203 49.349 13.0195 49.3191 12.5871C49.3044 12.38 49.3416 12.1726 49.4277 11.9799C49.4506 11.9035 49.494 11.8332 49.5541 11.7753C49.6142 11.7173 49.6892 11.6733 49.7726 11.6471C49.8247 11.6354 49.8797 11.6395 49.9289 11.6589C49.9781 11.6782 50.0186 11.7117 50.0442 11.754C50.0822 11.8196 50.0659 11.8681 50.0795 11.873C50.0931 11.8779 50.1365 11.8293 50.1121 11.7321C50.0948 11.6722 50.0556 11.6192 50.0007 11.5815C49.9215 11.5327 49.824 11.5136 49.7292 11.5281C49.6192 11.5512 49.5176 11.599 49.4339 11.667C49.3503 11.735 49.2874 11.821 49.2512 11.9167C49.1426 12.1296 49.095 12.3634 49.1127 12.5968C49.1453 13.0826 49.4413 13.532 49.8351 13.6219C49.9085 13.6389 49.9853 13.6407 50.0596 13.6273C50.134 13.6138 50.2039 13.5854 50.2641 13.5441C50.3646 13.4907 50.3782 13.4251 50.3673 13.4251Z" fill="#1E1E1E"/>
<path d="M63.6846 10.7144C63.6854 10.8455 63.6292 10.9717 63.5279 11.0665C63.4265 11.1612 63.288 11.217 63.1415 11.222C63.0697 11.227 62.9975 11.2191 62.9292 11.1989C62.8608 11.1787 62.7976 11.1465 62.7433 11.1042C62.689 11.062 62.6446 11.0104 62.6127 10.9527C62.5808 10.8949 62.5621 10.8321 62.5576 10.7678C62.5561 10.6363 62.612 10.5094 62.7134 10.4141C62.8149 10.3189 62.9538 10.2628 63.1008 10.2577C63.1728 10.2528 63.2452 10.2607 63.3137 10.2811C63.3822 10.3015 63.4455 10.3339 63.4999 10.3764C63.5543 10.4189 63.5986 10.4707 63.6303 10.5287C63.662 10.5868 63.6805 10.6499 63.6846 10.7144Z" fill="#263238"/>
<path d="M64.2331 10.2067C64.1625 10.2747 63.7361 9.99051 63.1278 9.99294C62.5195 9.99537 62.0742 10.265 62.009 10.1994C61.9438 10.1338 62.047 10.0512 62.2426 9.9225C62.5062 9.76101 62.8192 9.67619 63.1387 9.6796C63.4531 9.67665 63.7607 9.76157 64.0185 9.9225C64.2032 10.0585 64.2684 10.1775 64.2331 10.2067Z" fill="#263238"/>
<path d="M57.7104 10.7144C57.7112 10.8455 57.655 10.9717 57.5536 11.0665C57.4523 11.1612 57.3137 11.217 57.1673 11.222C57.0955 11.227 57.0233 11.2191 56.9549 11.1989C56.8866 11.1787 56.8234 11.1465 56.769 11.1042C56.7147 11.062 56.6703 11.0104 56.6385 10.9527C56.6066 10.8949 56.5879 10.8321 56.5834 10.7678C56.5819 10.6363 56.6378 10.5094 56.7392 10.4141C56.8406 10.3189 56.9796 10.2628 57.1265 10.2577C57.1985 10.2528 57.2709 10.2607 57.3394 10.2811C57.408 10.3015 57.4713 10.3339 57.5256 10.3764C57.58 10.4189 57.6244 10.4707 57.6561 10.5287C57.6878 10.5868 57.7062 10.6499 57.7104 10.7144Z" fill="#263238"/>
<path d="M58.2589 10.3087C58.1883 10.3743 57.762 10.0925 57.1537 10.0925C56.5454 10.0925 56.1 10.367 56.0349 10.299C56.0023 10.2699 56.0729 10.1508 56.2684 10.0245C56.5315 9.86202 56.8448 9.7771 57.1645 9.78164C57.4791 9.77753 57.7871 9.86256 58.0444 10.0245C58.229 10.1606 58.2942 10.2796 58.2589 10.3087Z" fill="#263238"/>
<path d="M60.4639 14.3409C60.7845 14.2502 61.1166 14.1963 61.4524 14.1806C61.6072 14.166 61.7538 14.1393 61.781 14.0445C61.7924 13.9016 61.7565 13.7588 61.6778 13.634L61.2188 12.575C60.5807 11.0714 60.119 9.83264 60.1869 9.81078C60.2548 9.78892 60.8278 10.9913 61.4632 12.4827C61.6171 12.8535 61.7638 13.2082 61.9032 13.5466C62.0013 13.7137 62.0302 13.9064 61.9846 14.0907C61.9622 14.1398 61.9275 14.1837 61.8833 14.219C61.8391 14.2544 61.7864 14.2803 61.7294 14.2947C61.6409 14.3164 61.5495 14.327 61.4578 14.3263C61.1286 14.3695 60.7945 14.3744 60.4639 14.3409Z" fill="#263238"/>
<path d="M58.6771 14.7174C58.7748 14.7174 58.7775 15.3003 59.3424 15.7206C59.9072 16.1408 60.6078 16.0752 60.6133 16.1578C60.6133 16.1942 60.4558 16.2719 60.1598 16.2792C59.7732 16.2831 59.3973 16.1653 59.098 15.9464C58.8108 15.7367 58.6258 15.4354 58.582 15.106C58.5576 14.8583 58.6309 14.7125 58.6771 14.7174Z" fill="#263238"/>
<path d="M64.0105 9.2521C63.9019 9.37355 63.4837 9.2521 62.9813 9.2521C62.4789 9.2521 62.0499 9.33468 61.9521 9.20594C61.9087 9.14279 61.9766 9.01891 62.1639 8.90232C62.4142 8.76255 62.7051 8.69232 63 8.70054C63.2949 8.70875 63.5804 8.79504 63.8204 8.94847C63.9997 9.05292 64.0567 9.19137 64.0105 9.2521Z" fill="#263238"/>
<path d="M57.4686 8.34365C57.4007 8.41167 57.2459 8.38252 57.0422 8.34365C56.5491 8.23855 56.0374 8.22368 55.5378 8.29993C55.3314 8.32179 55.1739 8.34122 55.1114 8.27078C55.049 8.20034 55.1114 8.04974 55.3232 7.89429C55.6111 7.7073 55.9605 7.61151 56.3161 7.62206C56.6717 7.63262 57.0132 7.74893 57.2866 7.95258C57.4849 8.12504 57.5337 8.28293 57.4686 8.34365Z" fill="#263238"/>
<path d="M65.1781 6.31785C63.2749 6.78038 61.2565 6.68849 59.4157 6.05552C57.3654 5.36082 55.0436 5.14221 54.5819 5.53814C54.1203 5.93407 54.218 7.74125 52.3443 8.4408C52.3443 8.4408 52.8657 11.8584 51.3232 11.873C49.7808 11.8876 50.1365 6.49031 50.1365 6.49031L53.6912 4.51796L57.6885 3.4662L61.5121 3.12128L65.1781 3.77711V6.31785Z" fill="#263238"/>
<path d="M75.3914 34.6231C75.3914 34.6231 82.2781 40.9652 84.7059 40.0227C91.3074 37.4723 96.6734 32.0702 98.52 30.1343C98.5988 29.7699 98.6775 29.3424 98.7454 28.8323C98.8026 28.3917 98.7751 27.9456 98.664 27.5134C98.552 26.9689 98.3565 26.4408 98.0828 25.9442C97.7814 25.5094 98.2159 24.9872 98.6911 25.1645C99.1663 25.3418 100.32 26.4908 100.562 28.1085C100.591 28.2009 100.643 28.2864 100.713 28.3593C100.783 28.4322 100.869 28.4907 100.967 28.5306C101.064 28.5706 101.171 28.5911 101.278 28.5908C101.385 28.5904 101.491 28.5693 101.589 28.5287C102.783 28.1765 106.843 26.7677 107.563 26.6171C108.206 26.4835 108.975 26.5175 108.546 26.9377C108.117 27.3579 105.124 28.9246 105.124 28.9246C105.124 28.9246 109.002 26.8017 109.323 27.3215C109.543 27.681 108.725 28.5068 106.004 29.6825C106.004 29.6825 109.214 27.9554 109.763 28.0113C110.995 28.14 107.156 30.2533 107.156 30.2533C109.871 28.7959 109.733 28.6963 110.026 28.9805C110.246 29.1918 109.771 29.6752 108.437 30.6468C107.351 31.4362 106.412 32.4467 104.836 33.7268C104.836 33.7268 88.543 53.9968 78.2917 47.7761C72.7655 44.4217 71.2475 42.7311 68.111 40.1903" fill="#FFBF9D"/>
<path d="M105.548 31.1569C105.589 31.2176 106.439 30.8023 107.449 30.2266C108.459 29.6509 109.241 29.136 109.195 29.0777C109.149 29.0194 108.299 29.4372 107.294 30.0104C106.289 30.5836 105.51 31.1035 105.548 31.1569Z" fill="#1E1E1E"/>
<path d="M104.812 30.2946C104.85 30.3553 105.787 29.957 106.9 29.4031C108.014 28.8493 108.885 28.3514 108.847 28.2882C108.809 28.2251 107.875 28.6259 106.759 29.1797C105.643 29.7335 104.766 30.2314 104.812 30.2946Z" fill="#1E1E1E"/>
<path d="M104.054 29.3861C104.092 29.4493 104.983 29.0849 106.045 28.5749C107.107 28.0648 107.946 27.6033 107.9 27.5352C107.853 27.4672 106.971 27.8364 105.909 28.3465C104.847 28.8566 104.016 29.323 104.054 29.3861Z" fill="#1E1E1E"/>
<path d="M34.6197 39.6584C34.6197 39.6584 31.1492 47.9365 28.5042 47.9438C21.308 47.9632 13.9786 44.9439 11.4205 43.8315C11.187 43.5254 10.9209 43.1611 10.6303 42.719C10.3818 42.3357 10.2074 41.9177 10.1143 41.4826C9.97545 40.943 9.91882 40.389 9.94598 39.8357C10.0274 39.3305 9.40286 39.005 9.03897 39.3499C8.67508 39.6949 8.1374 41.1498 8.6425 42.719C8.65708 42.8141 8.64838 42.9109 8.61702 43.0028C8.58565 43.0946 8.53236 43.1793 8.46083 43.2509C8.38929 43.3225 8.30123 43.3793 8.20272 43.4175C8.10421 43.4557 7.99761 43.4743 7.89028 43.472C6.6384 43.5764 2.28804 43.7392 1.55755 43.8606C0.908523 43.9699 0.218767 44.276 0.799901 44.5067C1.22353 44.6743 3.15702 44.9124 4.18351 45.029C2.93706 44.9026 0.305665 44.6865 0.262215 45.1358C0.235059 45.4006 0.696708 45.6872 1.83454 45.884C1.05788 45.8378 0.357262 45.8281 0.169887 45.9277C-0.916345 46.4864 3.56165 47.045 3.56165 47.045C0.427866 46.6783 0.501186 46.5447 0.359976 46.909C0.254069 47.1811 0.903093 47.4555 2.56231 47.8806C3.9201 48.2158 5.22358 48.8012 7.24126 49.4109C7.24126 49.4109 31.2524 62.1437 37.854 52.7726C41.4141 47.7203 42.0496 45.6265 43.7848 42.1724L34.6197 39.6584Z" fill="#FFBF9D"/>
<path d="M5.44079 47.2879C5.44079 47.3584 4.4659 47.2879 3.26833 47.1155C2.07076 46.943 1.13931 46.7608 1.15561 46.6904C1.1719 46.6199 2.13865 46.6904 3.32807 46.8628C4.51749 47.0353 5.44894 47.2175 5.44079 47.2879Z" fill="#1E1E1E"/>
<path d="M5.72591 46.2167C5.72591 46.2872 4.68313 46.258 3.41495 46.1511C2.14678 46.0443 1.12301 45.9082 1.13115 45.8257C1.1393 45.7431 2.17122 45.7868 3.44211 45.8937C4.713 46.0005 5.73135 46.156 5.72591 46.2167Z" fill="#1E1E1E"/>
<path d="M6.01381 45.1237C6.01381 45.1941 5.02805 45.182 3.82505 45.0921C2.62205 45.0022 1.65259 44.8759 1.65259 44.8055C1.65259 44.735 2.63834 44.7496 3.84134 44.8371C5.04435 44.9245 6.01924 45.0532 6.01381 45.1237Z" fill="#1E1E1E"/>
<path d="M83.5165 40.0422L72.1573 28.7036C68.9936 25.9224 67.3045 25.0917 62.9026 24.6253C62.1829 24.55 61.6099 24.5014 61.1999 24.4553C57.9013 25.388 54.3613 25.388 51.0626 24.4553C49.4957 24.5136 48.1977 24.9411 46.8671 25.184C42.6688 25.9127 39.649 28.638 38.8099 31.1617L29.3407 47.7057L37.3381 53.7175L44.643 43.3456L45.0883 54.3855L44.6348 62.6441L72.6732 62.717L71.3996 43.3505L78.9462 48.8449L83.5165 40.0422Z" fill="#80AAFF"/>
<path d="M44.7705 36.3962C44.7987 36.5176 44.8105 36.6416 44.8058 36.7654C44.8058 37.0083 44.8248 37.3436 44.833 37.7686C44.833 38.6139 44.852 39.7847 44.833 41.0769C44.814 42.3692 44.8085 43.5399 44.7868 44.3852C44.7868 44.8103 44.7624 45.1528 44.7515 45.3884C44.755 45.5117 44.7413 45.6349 44.7108 45.7552C44.6808 45.6349 44.668 45.5116 44.6728 45.3884C44.6728 45.1455 44.6538 44.8079 44.6456 44.3852C44.632 43.5375 44.6266 42.3692 44.6456 41.0745C44.6646 39.7798 44.67 38.6139 44.6918 37.7662C44.6918 37.3435 44.7162 37.0011 44.7298 36.763C44.7248 36.6397 44.7385 36.5163 44.7705 36.3962Z" fill="#263238"/>
<path d="M71.8747 50.5889C71.8314 50.4016 71.8041 50.2116 71.7933 50.0205C71.7525 49.6222 71.7009 49.0975 71.6358 48.466C71.5136 47.1519 71.3642 45.335 71.2013 43.3286C71.0383 41.3223 70.908 39.5151 70.8211 38.201C70.7858 37.567 70.7532 37.0399 70.7315 36.6416C70.7137 36.4508 70.7137 36.2591 70.7315 36.0683C70.7768 36.2554 70.805 36.4455 70.8157 36.6367C70.8564 37.0351 70.908 37.5597 70.9704 38.1913C71.0926 39.5054 71.242 41.3223 71.4077 43.3286C71.5733 45.335 71.6982 47.1519 71.7851 48.4684C71.8231 49.1024 71.853 49.6295 71.8775 50.0278C71.8929 50.2146 71.892 50.4022 71.8747 50.5889Z" fill="#263238"/>
<g opacity="0.3">
<path d="M76.0323 32.5195C76.0323 32.5535 67.5244 32.5827 57.0232 32.5827C46.5221 32.5827 38.0142 32.5535 38.0142 32.5195C38.0142 32.4855 46.5221 32.4564 57.0232 32.4564C67.5244 32.4564 76.0323 32.4831 76.0323 32.5195Z" fill="#EBEBEB"/>
</g>
<g opacity="0.3">
<path d="M78.9678 42.5951C78.9678 42.6315 68.5998 42.6582 55.8148 42.6582C43.0299 42.6582 32.6591 42.6315 32.6591 42.5951C32.6591 42.5586 43.0244 42.5319 55.8148 42.5319C68.6052 42.5319 78.9678 42.5732 78.9678 42.5951Z" fill="#EBEBEB"/>
</g>
<g opacity="0.3">
<path d="M72.1029 54.0843C72.1029 54.1207 66.0824 54.1474 58.6553 54.1474C51.2282 54.1474 45.2078 54.1207 45.2078 54.0843C45.2078 54.0478 51.2282 54.0211 58.6553 54.0211C66.0824 54.0211 72.1029 54.0503 72.1029 54.0843Z" fill="#EBEBEB"/>
</g>
<g opacity="0.3">
<path d="M48.2166 62.6902C48.1786 62.6902 48.146 54.2276 48.146 43.7926C48.146 33.3576 48.1786 24.89 48.2166 24.89C48.2546 24.89 48.2818 33.343 48.2818 43.7877C48.2818 54.2324 48.2573 62.6902 48.2166 62.6902Z" fill="#EBEBEB"/>
</g>
<g opacity="0.3">
<path d="M64.4667 62.6927C64.4667 62.6927 64.4667 62.6587 64.4667 62.5955C64.4667 62.5324 64.4667 62.4279 64.4667 62.3065C64.4667 62.049 64.4667 61.6774 64.4531 61.2037C64.4531 60.2321 64.4314 58.85 64.4178 57.1424C64.3825 53.7054 64.3336 48.9712 64.282 43.7416C64.2304 38.5119 64.1924 33.7681 64.1897 30.3383C64.1897 28.638 64.1897 27.2438 64.1897 26.277C64.1897 25.7912 64.1897 25.4317 64.2033 25.1742C64.2033 25.0528 64.2033 24.9556 64.2033 24.8852C64.1999 24.8529 64.1999 24.8203 64.2033 24.788C64.2033 24.788 64.2033 24.822 64.2033 24.8852C64.2033 24.9483 64.2033 25.0528 64.2033 25.1742C64.2033 25.4317 64.2033 25.8034 64.2169 26.277C64.2169 27.2486 64.2386 28.6283 64.2522 30.3383C64.2875 33.7729 64.3363 38.5095 64.3879 43.7416C64.4395 48.9736 64.4776 53.7005 64.4803 57.14C64.4803 58.8403 64.4803 60.237 64.4803 61.2037C64.4803 61.6774 64.4803 62.049 64.4803 62.3065C64.4803 62.4279 64.4803 62.5226 64.4803 62.5955C64.4792 62.6282 64.4747 62.6607 64.4667 62.6927Z" fill="#EBEBEB"/>
</g>
<g opacity="0.3">
<path d="M75.9617 46.5374C75.9237 46.5374 75.8911 43.4768 75.8911 39.7021C75.8911 35.9275 75.9237 32.8669 75.9617 32.8669C75.9997 32.8669 76.0323 35.925 76.0323 39.7021C76.0323 43.4792 76.0024 46.5374 75.9617 46.5374Z" fill="#EBEBEB"/>
</g>
<g opacity="0.3">
<path d="M35.4969 49.338C35.4561 49.338 35.4263 46.4523 35.4263 42.8914C35.4263 39.3305 35.4561 36.4424 35.4969 36.4424C35.5376 36.4424 35.5675 39.328 35.5675 42.8914C35.5675 46.4547 35.5349 49.338 35.4969 49.338Z" fill="#EBEBEB"/>
</g>
<path d="M50.0144 24.788L51.5623 21.8781L56.6323 25.0746L61.6344 22.0675L63.3941 24.6228L58.3811 27.5376H55.0301L50.0144 25.1256" fill="#80AAFF"/>
<path d="M56.6322 25.0844C56.6019 25.0962 56.5699 25.1043 56.5372 25.1087C56.4437 25.1191 56.3523 25.1412 56.2656 25.1742C55.9527 25.2881 55.6884 25.488 55.5107 25.7451C55.2358 26.1293 55.0022 26.536 54.8128 26.9596C54.6933 27.2025 54.5738 27.4454 54.4217 27.7053C54.2723 27.9747 54.0752 28.2208 53.8379 28.434L53.789 28.4753L53.7401 28.4291L53.4523 28.1619C52.4475 27.2195 51.5921 26.3232 51.0083 25.6576C50.7095 25.3248 50.4651 25.0528 50.3185 24.8609C50.2294 24.7661 50.1512 24.6636 50.085 24.5548C50.1853 24.6381 50.2763 24.7301 50.3565 24.8293L51.0789 25.6017C51.6926 26.2503 52.5589 27.1369 53.5582 28.0745L53.846 28.3417H53.7483C53.9768 28.1387 54.1659 27.9031 54.3077 27.6445C54.457 27.4016 54.5792 27.1466 54.7014 26.9158C54.9008 26.4901 55.1474 26.0832 55.4374 25.7013C55.6314 25.4373 55.918 25.2382 56.252 25.1354C56.3396 25.1085 56.4311 25.0938 56.5236 25.0916C56.5969 25.0698 56.6322 25.0698 56.6322 25.0844Z" fill="#263238"/>
<path d="M63.3044 24.6787C63.234 24.7835 63.1512 24.8813 63.0573 24.9702C62.8862 25.1524 62.6364 25.4098 62.3105 25.7135C61.4542 26.5039 60.5189 27.2227 59.5162 27.8607C59.2962 27.9992 59.0763 28.1328 58.8645 28.2566L58.7667 28.3125V28.2056C58.7049 27.6941 58.566 27.1924 58.3539 26.7142C58.1966 26.3263 57.9701 25.9638 57.6832 25.6406C57.4978 25.4225 57.2488 25.2544 56.9636 25.1548C56.7626 25.0941 56.6404 25.0868 56.6431 25.0746C56.6458 25.0625 56.673 25.0746 56.73 25.0746C56.8147 25.0769 56.8987 25.0892 56.9798 25.1111C57.2833 25.1992 57.552 25.3637 57.7538 25.5847C58.0593 25.9089 58.3017 26.2768 58.4707 26.6729C58.694 27.1619 58.8412 27.676 58.9079 28.2008L58.7993 28.1522C59.0084 28.0259 59.2256 27.8947 59.4456 27.7563C60.442 27.1234 61.3792 26.4191 62.2481 25.6503C62.5848 25.3564 62.8455 25.1086 63.0274 24.9386C63.1115 24.8452 63.2041 24.7583 63.3044 24.6787Z" fill="#263238"/>
<path d="M58.5603 62.6927C58.5603 62.6927 58.5603 62.6587 58.5603 62.5955C58.5603 62.5324 58.5603 62.4328 58.5603 62.3113C58.5603 62.0563 58.5603 61.6895 58.544 61.2207C58.544 60.2661 58.5142 58.8961 58.4897 57.2055C58.4354 53.8171 58.3132 49.1364 58.0498 43.9699C57.7864 38.8034 57.4225 34.1324 57.1319 30.7537C56.9799 29.0679 56.8604 27.7028 56.7735 26.7507C56.7327 26.2843 56.7001 25.9199 56.6757 25.6649C56.6757 25.5434 56.6594 25.4511 56.6567 25.3807C56.6525 25.3484 56.6525 25.3158 56.6567 25.2835C56.6567 25.2835 56.6567 25.3151 56.673 25.3783C56.6893 25.4414 56.692 25.5434 56.7083 25.6625C56.7382 25.9175 56.7789 26.2819 56.8305 26.7482C56.9364 27.6907 57.0749 29.0558 57.2351 30.7464C57.5528 34.1227 57.9276 38.7961 58.1937 43.965C58.4598 49.134 58.563 53.8146 58.5929 57.2055C58.6092 58.9058 58.6092 60.2734 58.5929 61.2207C58.5929 61.6895 58.5929 62.0563 58.5929 62.3113C58.5929 62.4328 58.5929 62.5251 58.5929 62.5955C58.5856 62.6288 58.5747 62.6613 58.5603 62.6927Z" fill="#263238"/>
<g opacity="0.2">
<path d="M56.5127 25.0844C57.1291 25.3977 57.3572 26.0948 57.36 26.7264C57.3627 27.3579 57.1943 27.9895 57.254 28.621C57.2536 28.7868 57.296 28.9505 57.378 29.0992C57.46 29.248 57.5793 29.3778 57.7266 29.4784C58.1556 29.7213 58.7015 29.493 59.1414 29.2768C60.0864 28.8129 61.0423 28.3392 61.8162 27.664C62.1866 27.3229 62.4743 26.9171 62.6612 26.4719C62.8481 26.0268 62.9302 25.5519 62.9025 25.0771C61.599 26.328 60.2846 27.0834 58.859 28.0696C58.7568 27.4038 58.5134 26.7616 58.142 26.1774C57.7727 25.6042 57.2486 25.0115 56.5127 25.0844Z" fill="black"/>
</g>
<g opacity="0.2">
<path d="M51.8555 26.5224C52.3361 27.3652 52.8412 28.2227 53.6695 28.8226C54.0361 29.0825 54.5738 29.2793 54.9567 29.0364C55.2635 28.8396 55.3151 28.4583 55.3396 28.1206C55.4047 27.2656 55.6871 26.2819 55.7523 25.4244C54.9947 26.1896 54.5792 27.5377 53.7808 28.4631C52.9661 28.004 52.4963 27.2195 51.9098 26.5369" fill="black"/>
</g>
<g opacity="0.2">
<path d="M76.5238 46.9454L80.3066 40.6519C79.1878 40.7514 78.4356 41.6963 77.8626 42.5611C77.2896 43.4258 76.5863 44.3852 75.4756 44.5577C74.7044 44.6767 73.9332 44.3682 73.2597 44.0087C72.5862 43.6493 71.9345 43.2242 71.1687 43.0736L76.5238 46.9454Z" fill="black"/>
</g>
<g opacity="0.2">
<path d="M43.2933 45.2451C43.2933 45.2451 40.6592 47.7251 38.8832 48.0895C37.9902 48.2654 37.0656 48.2698 36.1705 48.1023C35.2754 47.9348 34.4303 47.5993 33.691 47.1179C33.5777 47.0291 33.443 46.9651 33.2973 46.9308C33.2236 46.9174 33.147 46.9294 33.083 46.9646C33.0189 46.9998 32.9722 47.0555 32.9524 47.1203C32.9553 47.1795 32.9735 47.2372 33.0055 47.2891C33.0376 47.3409 33.0826 47.3854 33.1371 47.4191C34.9474 48.9267 36.8339 50.3614 38.7963 51.7233L43.2933 45.2451Z" fill="black"/>
</g>
<g opacity="0.2">
<path d="M55.6981 28.3392C54.6988 35.4789 54.0462 42.6477 53.7402 49.8457C53.694 50.9703 53.6614 52.1289 54.1095 53.1807C54.6309 54.3952 55.7389 55.3425 56.8251 56.2315C57.284 56.6104 57.9113 57.0185 58.4707 56.7829C58.6842 56.6755 58.8657 56.5239 59.0003 56.3408C59.6792 55.5587 60.3146 54.7134 60.5672 53.7466C61.3547 50.7201 58.1612 47.7251 58.8808 44.684" fill="black"/>
</g>
<path d="M55.4401 25.8544L57.838 25.7985L58.4789 26.9523L57.7104 28.8809H55.7524L54.7151 27.1539L55.4401 25.8544Z" fill="#455A64"/>
<path d="M55.7524 28.8809L54.6309 53.4284L57.8896 56.5983L60.9011 52.7702L57.7103 28.8809H55.7524Z" fill="#455A64"/>
<path d="M57.5962 28.9149C57.2946 28.941 56.9908 28.941 56.6892 28.9149C56.3875 28.9322 56.0847 28.9233 55.7849 28.8882C56.3797 28.7463 57.007 28.7555 57.5962 28.9149Z" fill="#263238"/>
<path d="M58.1122 26.2139C58.0335 26.3514 57.9308 26.4768 57.8081 26.5855C57.5345 26.8641 57.2327 27.1195 56.9065 27.3482C56.5829 27.5783 56.2366 27.7815 55.8718 27.9555C55.7259 28.0389 55.5652 28.0996 55.3966 28.1352C55.3776 28.1012 56.0728 27.7806 56.8196 27.2486C57.5664 26.7167 58.0796 26.1871 58.1122 26.2139Z" fill="#263238"/>
<path d="M58.0063 31.2784C57.6508 31.6817 57.2594 32.0586 56.8359 32.4054C56.4442 32.7821 56.0182 33.129 55.5623 33.4426C55.9182 33.0389 56.3106 32.6619 56.7354 32.3155C57.1258 31.9386 57.5509 31.5916 58.0063 31.2784Z" fill="#263238"/>
<path d="M58.1719 33.0467C57.77 33.4914 57.3316 33.9087 56.8603 34.2952C56.4237 34.7132 55.9526 35.1014 55.4509 35.4562C55.8532 35.011 56.2916 34.5929 56.7626 34.2053C57.1996 33.7884 57.6707 33.4011 58.1719 33.0467Z" fill="#EBEBEB"/>
<path d="M58.4816 34.679C58.0076 35.1884 57.4978 35.6703 56.9554 36.1218C56.4445 36.6036 55.9003 37.0563 55.326 37.4772C55.7996 36.9666 56.3093 36.4839 56.8522 36.0319C57.3618 35.5497 57.9061 35.0977 58.4816 34.679Z" fill="#263238"/>
<path d="M58.6961 36.3987C58.1746 36.9493 57.6188 37.4731 57.0315 37.9678C56.4759 38.4897 55.8874 38.9828 55.269 39.4447C55.7879 38.8935 56.3429 38.3703 56.931 37.878C57.4867 37.3546 58.076 36.8606 58.6961 36.3987Z" fill="#EBEBEB"/>
<path d="M58.8997 38.1306C58.3341 38.7204 57.734 39.2831 57.102 39.8163C56.5019 40.3801 55.8672 40.9137 55.201 41.4146C55.7658 40.8194 56.3659 40.2518 56.9988 39.7143C57.5988 39.155 58.2334 38.6263 58.8997 38.1306Z" fill="#263238"/>
<path d="M59.1441 39.8236C59.174 39.8479 58.286 40.6762 57.1672 41.6745C56.0484 42.6728 55.1142 43.4598 55.087 43.4355C55.7112 42.7888 56.372 42.171 57.0667 41.5846C58.1855 40.5863 59.1142 39.7993 59.1441 39.8236Z" fill="#EBEBEB"/>
<path d="M59.3478 41.553C59.3749 41.5773 58.4217 42.4639 57.2215 43.5351C56.0212 44.6063 55.0245 45.4492 54.9974 45.4249C54.9702 45.4006 55.9207 44.514 57.121 43.4452C58.3213 42.3765 59.3179 41.5287 59.3478 41.553Z" fill="#263238"/>
<path d="M59.5868 43.2533C59.614 43.2776 58.5956 44.2249 57.3139 45.3642C56.0321 46.5034 54.9703 47.4094 54.9432 47.3851C54.916 47.3608 55.9316 46.4135 57.2161 45.2743C58.5006 44.1351 59.5569 43.2291 59.5868 43.2533Z" fill="#EBEBEB"/>
<path d="M59.7361 45.0314C59.7633 45.0557 58.6825 46.0588 57.322 47.2685C55.9615 48.4781 54.8372 49.4424 54.8074 49.4182C54.7775 49.3939 55.861 48.3907 57.2215 47.181C58.582 45.9714 59.709 45.0022 59.7361 45.0314Z" fill="#263238"/>
<path d="M59.9995 46.7025C60.0266 46.7268 58.8861 47.7834 57.4523 49.0611C56.0184 50.3387 54.829 51.3565 54.8019 51.3322C54.7747 51.3079 55.9153 50.2513 57.3518 48.9712C58.7883 47.6911 59.9723 46.6831 59.9995 46.7025Z" fill="#EBEBEB"/>
<path d="M60.415 48.2474C60.4422 48.2741 59.1658 49.4497 57.5664 50.8755C55.9669 52.3014 54.6444 53.4406 54.6172 53.4163C54.5901 53.392 55.8637 52.2139 57.4659 50.7857C59.0681 49.3574 60.3879 48.2231 60.415 48.2474Z" fill="#263238"/>
<path d="M55.6519 54.4219C55.6247 54.3976 56.7028 53.3872 58.0633 52.1654C59.4238 50.9436 60.5453 49.9793 60.5752 49.9987C60.6051 50.0181 59.5216 51.0335 58.1638 52.2552C56.806 53.477 55.679 54.4462 55.6519 54.4219Z" fill="#EBEBEB"/>
<path d="M56.8983 55.5392C56.8712 55.515 57.713 54.6794 58.7993 53.6713C59.4292 53.0478 60.0945 52.4535 60.7925 51.8909C60.1943 52.5417 59.5599 53.1651 58.8916 53.7588C58.2616 54.3823 57.5963 54.9766 56.8983 55.5392Z" fill="#263238"/>
<path d="M57.7647 29.6339C57.4538 29.9974 57.1066 30.3348 56.7273 30.6419C56.3807 30.9796 55.9998 31.2878 55.5895 31.5625C55.9007 31.1985 56.2479 30.8604 56.6268 30.552C56.9737 30.2153 57.3546 29.908 57.7647 29.6339Z" fill="#EBEBEB"/>
<path d="M29.5769 47.6522C29.1804 47.6207 29.0338 47.1397 29.1587 46.8021C29.2836 46.4645 29.5851 46.1924 29.7018 45.8523C29.7752 45.6605 29.8077 45.4297 29.9951 45.3131C30.0975 45.2543 30.2178 45.2253 30.3393 45.2301C30.4609 45.2349 30.5778 45.2732 30.674 45.3398C31.7793 46.1851 32.5939 47.0086 33.7996 47.9243C34.9619 48.8036 36.2138 49.9331 37.4412 50.7419C38.131 51.1986 38.9755 51.6698 39.0706 52.4422C39.0938 52.7578 38.9805 53.0693 38.754 53.3121C38.5275 53.5549 38.2052 53.7105 37.854 53.7466C37.1534 53.7903 36.5478 53.3458 36.0237 52.928C33.8368 51.1824 31.6489 49.4376 29.4602 47.6935" fill="#80AAFF"/>
<path d="M38.6307 51.6213C38.5119 51.5578 38.3992 51.4855 38.294 51.4051C38.0822 51.2593 37.7699 51.0602 37.3788 50.8124C36.9183 50.5266 36.4784 50.215 36.0618 49.8796L34.5438 48.6457C33.4575 47.764 32.5016 46.9624 31.8064 46.377L30.9918 45.6775C30.8916 45.5967 30.8006 45.5072 30.7202 45.4103C30.8359 45.4824 30.944 45.5637 31.0434 45.6532L31.8933 46.3212C32.6048 46.8895 33.5797 47.6814 34.6551 48.5607C35.1982 49.0028 35.6979 49.4206 36.1622 49.8044C36.5725 50.1419 37.0041 50.4582 37.4549 50.7517C37.8378 51.0091 38.1419 51.2229 38.3456 51.3783C38.449 51.451 38.5445 51.5323 38.6307 51.6213Z" fill="#263238"/>
<path d="M37.9083 52.1872C37.7844 52.1375 37.6662 52.0774 37.5552 52.0075C37.3353 51.886 37.0121 51.7014 36.6347 51.4682C35.8634 51.0019 34.8179 50.329 33.71 49.525C32.602 48.721 31.638 47.9656 30.9618 47.3948C30.6224 47.1106 30.3508 46.875 30.1716 46.7074C30.0715 46.6265 29.9805 46.537 29.9 46.4402C30.0109 46.5139 30.1153 46.5951 30.2123 46.6831L31.027 47.3389C31.7222 47.8927 32.6916 48.6433 33.7969 49.4376C34.9021 50.2319 35.9368 50.912 36.6917 51.3954L37.5851 51.9662C37.6996 52.0316 37.8077 52.1055 37.9083 52.1872Z" fill="#263238"/>
<g opacity="0.3">
<path d="M33.0746 47.3656C32.8209 47.6797 32.5305 47.9688 32.2083 48.2279C31.9182 48.5166 31.5941 48.7764 31.2416 49.0028C31.7848 48.3995 32.3994 47.8506 33.0746 47.3656Z" fill="#EBEBEB"/>
</g>
<g opacity="0.3">
<path d="M37.3299 50.776C37.0527 51.1018 36.7387 51.4014 36.393 51.6699C36.079 51.9681 35.7324 52.2374 35.3584 52.4739C35.6347 52.1473 35.9487 51.8477 36.2953 51.58C36.6086 51.2811 36.9553 51.0117 37.3299 50.776Z" fill="#EBEBEB"/>
</g>
<g opacity="0.5">
<path d="M53.5311 23.2505C53.2631 23.7374 52.9535 24.2052 52.605 24.6496C52.297 25.117 51.9483 25.5621 51.5623 25.9807C51.8317 25.4944 52.1412 25.0267 52.4883 24.5815C52.7952 24.1134 53.1439 23.6683 53.5311 23.2505Z" fill="#EBEBEB"/>
</g>
<g opacity="0.5">
<path d="M61.5881 26.0706C61.2765 25.6111 61.0042 25.1312 60.7735 24.635C60.5009 24.1557 60.2711 23.6578 60.0864 23.146C60.6734 24.0805 61.1765 25.0551 61.5909 26.0608L61.5881 26.0706Z" fill="#EBEBEB"/>
</g>
<path d="M79.3073 48.2571C79.2329 48.4106 79.1048 48.5384 78.9422 48.6212C78.7796 48.704 78.5913 48.7373 78.4057 48.7162C78.0092 48.6773 77.6481 48.4733 77.2489 48.4465C77.0235 48.4247 76.7655 48.4465 76.5971 48.3081C76.5238 48.2254 76.4743 48.128 76.453 48.0242C76.4317 47.9204 76.4392 47.8135 76.4749 47.713C76.7275 46.3697 77.5422 45.1674 78.4166 44.0525C79.291 42.9376 80.2496 41.8664 80.8606 40.6106C81.2028 39.9062 81.5286 39.0657 82.3406 38.8131C82.681 38.7217 83.0477 38.7515 83.364 38.8964C83.6803 39.0413 83.9218 39.2899 84.0378 39.5904C84.2415 40.1928 83.8912 40.8195 83.5517 41.3684L79.3073 48.2571Z" fill="#80AAFF"/>
<path d="M82.0228 40.0665C81.9914 40.1837 81.9487 40.2983 81.8952 40.409C81.8056 40.6251 81.6671 40.9361 81.4933 41.3174C81.143 42.0801 80.6352 43.127 80.035 44.2662C79.4349 45.4054 78.8483 46.4207 78.4057 47.147C78.1884 47.5089 78.0065 47.8004 77.8762 47.9996C77.815 48.1064 77.7432 48.208 77.6616 48.3032C77.7068 48.1909 77.7622 48.082 77.8273 47.9777L78.3188 47.1033C78.7343 46.3746 79.3018 45.3496 79.902 44.2128C80.5021 43.076 81.0262 42.0267 81.3983 41.281C81.5775 40.9215 81.7268 40.6227 81.8409 40.3895C81.8905 40.2772 81.9514 40.169 82.0228 40.0665Z" fill="#263238"/>
<path d="M81.5667 38.7208C81.5091 38.8355 81.44 38.9452 81.3603 39.0487L80.771 39.9183C80.274 40.647 79.6033 41.6721 78.9027 42.8331C78.2021 43.9942 77.6101 45.0435 77.1891 45.8135L76.6949 46.7293C76.6398 46.8439 76.5744 46.9544 76.4994 47.0596C76.535 46.9392 76.5832 46.8221 76.6433 46.7098C76.7465 46.4864 76.9013 46.1682 77.0995 45.7771C77.496 44.9949 78.0771 43.9262 78.7778 42.7724C79.4784 41.6186 80.1681 40.6033 80.6787 39.8795C80.9502 39.5175 81.1539 39.2285 81.306 39.0317C81.3806 38.9203 81.468 38.8161 81.5667 38.7208Z" fill="#263238"/>
<g opacity="0.5">
<path d="M80.2524 46.5325C79.7395 46.4704 79.2419 46.3317 78.7805 46.122C78.2984 45.953 77.8507 45.7142 77.4553 45.4152C77.477 45.3836 78.0663 45.7018 78.8376 46.0078C79.6088 46.3139 80.2632 46.4985 80.2524 46.5325Z" fill="#EBEBEB"/>
</g>
<g opacity="0.5">
<path d="M83.5844 41.5142C83.0869 41.3005 82.606 41.057 82.1451 40.7855C81.6589 40.5478 81.1908 40.2816 80.7439 39.9887C81.2603 40.1733 81.7544 40.4044 82.2185 40.6786C82.7046 40.9145 83.1623 41.1945 83.5844 41.5142Z" fill="#EBEBEB"/>
</g>
</svg>
