<svg width="344" height="331" viewBox="0 0 344 331" fill="none" xmlns="http://www.w3.org/2000/svg">
<path d="M258 247.571C305.496 201.994 305.496 128.1 258 82.5236C210.504 36.9471 133.496 36.9471 86 82.5236C38.5035 128.1 38.5035 201.994 86 247.571C133.496 293.147 210.504 293.147 258 247.571Z" fill="#76517B"/>
<path opacity="0.4" d="M253.101 242.87C297.893 199.89 297.893 130.205 253.101 87.224C208.31 44.2435 135.689 44.2435 90.8982 87.224C46.107 130.205 46.107 199.89 90.8982 242.87C135.689 285.851 208.31 285.851 253.101 242.87Z" fill="white"/>
<path opacity="0.7" d="M283.918 165.048C283.937 188.64 275.866 211.581 260.949 230.334C246.033 249.087 225.1 262.609 201.381 268.814C177.661 275.019 152.473 273.562 129.702 264.667C106.931 255.773 87.8429 239.936 75.3822 219.599C62.9216 199.263 57.7809 175.557 60.7534 152.138C63.7258 128.72 74.6462 106.891 91.8297 90.0191C109.013 73.147 131.505 62.1695 155.835 58.7802C180.165 55.3908 204.981 59.778 226.455 71.2647C243.859 80.5811 258.359 94.1829 268.46 110.668C278.561 127.153 283.897 145.925 283.918 165.048Z" fill="white"/>
<path opacity="0.2" d="M171.994 48.3423C147.94 48.3445 124.427 55.1911 104.428 68.0162C84.4286 80.8414 68.8418 99.0691 59.6382 120.395C50.4347 141.72 48.0278 165.185 52.7219 187.823C57.4161 210.461 69.0004 231.255 86.0101 247.576C103.02 263.896 124.691 275.01 148.283 279.513C171.875 284.015 196.329 281.703 218.552 272.87C240.774 264.036 259.769 249.078 273.132 229.886C286.496 210.694 293.628 188.13 293.628 165.048C293.628 149.721 290.482 134.544 284.369 120.384C278.256 106.224 269.297 93.3581 258.002 82.5208C246.707 71.6835 233.298 63.0872 218.541 57.2228C203.784 51.3585 187.967 48.3409 171.994 48.3423ZM171.994 279.417C148.419 279.417 125.373 272.708 105.77 260.14C86.1683 247.571 70.8904 229.707 61.8689 208.806C52.8475 187.905 50.4876 164.907 55.0878 142.719C59.6881 120.531 71.0417 100.151 87.713 84.1549C104.384 68.1591 125.624 57.2663 148.747 52.8542C171.87 48.4421 195.837 50.7088 217.617 59.3676C239.398 68.0264 258.013 82.6885 271.109 101.5C284.206 120.311 291.194 142.426 291.192 165.048C291.192 180.068 288.109 194.941 282.119 208.818C276.128 222.694 267.348 235.303 256.279 245.923C245.211 256.543 232.07 264.967 217.609 270.714C203.147 276.461 187.647 279.418 171.994 279.417V279.417Z" fill="black"/>
<path d="M226.455 71.2647L171.994 165.857V57.6597C191.064 57.6307 209.821 62.3163 226.455 71.2647V71.2647Z" fill="#76517B"/>
<path opacity="0.5" d="M226.455 71.2647L171.994 165.857V57.6597C191.064 57.6307 209.821 62.3163 226.455 71.2647Z" fill="white"/>
<path d="M267.052 109.451L172 163.106L227.118 70.0001C243.543 79.6899 257.296 93.2768 267.052 109.451V109.451Z" fill="#76517B"/>
<path opacity="0.5" d="M267.052 109.451L172 163.106L227.118 70.0001C243.543 79.6899 257.296 93.2768 267.052 109.451Z" fill="white"/>
<path d="M284.139 162.196L175 160.67L269.512 108C278.821 124.644 283.858 143.309 284.139 162.196V162.196Z" fill="#76517B"/>
<path opacity="0.5" d="M284.139 162.196L175 160.67L269.512 108C278.821 124.644 283.858 143.309 284.139 162.196Z" fill="white"/>
<path d="M272.592 215.651L178.109 161L286.306 161.217C286.297 180.287 281.574 199.034 272.592 215.651V215.651Z" fill="#76517B"/>
<path opacity="0.5" d="M272.592 215.651L178.109 161L286.306 161.217C286.297 180.287 281.574 199.034 272.592 215.651Z" fill="white"/>
<path d="M235.642 253.335L177.436 161L273.108 211.533C264.227 228.409 251.323 242.806 235.642 253.335V253.335Z" fill="#76517B"/>
<path opacity="0.5" d="M235.642 253.335L177.436 161L273.108 211.533C264.227 228.409 251.323 242.806 235.642 253.335Z" fill="white"/>
<path d="M173.405 164.882C173.261 164.912 173.115 164.926 172.968 164.925C171.862 164.878 170.79 164.246 169.987 163.167C169.184 162.087 168.716 160.649 168.686 159.169L166.79 64.6887C166.767 63.9481 166.855 63.2174 167.048 62.5392C167.24 61.8609 167.534 61.2487 167.912 60.7381C168.29 60.2275 168.745 59.8287 169.25 59.5649C169.754 59.3012 170.299 59.1777 170.852 59.2017C171.405 59.2258 171.955 59.3968 172.471 59.7049C172.987 60.0129 173.457 60.4519 173.855 60.9962C174.253 61.5406 174.571 62.1794 174.79 62.8755C175.009 63.5716 175.125 64.3112 175.131 65.0511L176.999 159.487C177.024 160.859 176.672 162.167 176.01 163.162C175.347 164.156 174.42 164.769 173.405 164.882V164.882Z" fill="#263238"/>
<path d="M171.594 85.188L171.456 85.2073C171.274 85.2148 171.093 85.1877 170.923 85.1276C170.752 85.0675 170.596 84.9756 170.464 84.8571C170.331 84.7386 170.225 84.5958 170.15 84.437C170.075 84.2782 170.034 84.1064 170.029 83.9316L169.592 70.5671C169.581 70.214 169.716 69.8696 169.968 69.6096C170.22 69.3496 170.568 69.1953 170.935 69.1806C171.303 69.1659 171.66 69.292 171.927 69.5313C172.195 69.7705 172.352 70.1033 172.363 70.4563L172.8 83.8208C172.806 84.1493 172.687 84.4699 172.465 84.7219C172.242 84.9739 171.932 85.1397 171.594 85.188V85.188Z" fill="#919379"/>
<g opacity="0.2">
<path d="M170.916 85.1482L170.778 85.1615C170.596 85.1612 170.416 85.1263 170.248 85.0589C170.081 84.9915 169.929 84.8929 169.802 84.7688C169.674 84.6446 169.574 84.4974 169.506 84.3355C169.438 84.1736 169.405 84.0002 169.407 83.8253L169.548 70.4544C169.552 70.1012 169.702 69.7629 169.965 69.5141C170.228 69.2652 170.582 69.126 170.95 69.1273C171.318 69.1285 171.669 69.2699 171.926 69.5205C172.183 69.7711 172.325 70.1103 172.321 70.4635L172.18 83.8344C172.172 84.1628 172.039 84.478 171.806 84.7202C171.573 84.9623 171.256 85.1146 170.916 85.1482V85.1482Z" fill="white"/>
</g>
<path d="M171.994 267.573C171.842 267.57 171.697 267.511 171.589 267.408C171.482 267.305 171.42 267.165 171.417 267.019V254.733C171.42 254.587 171.482 254.447 171.589 254.344C171.697 254.241 171.842 254.182 171.994 254.179C172.147 254.179 172.294 254.237 172.402 254.341C172.511 254.445 172.572 254.586 172.572 254.733V267.019C172.572 267.166 172.511 267.307 172.402 267.411C172.294 267.515 172.147 267.573 171.994 267.573Z" fill="#263238"/>
<path d="M120.258 254.666C120.156 254.668 120.056 254.641 119.969 254.589C119.902 254.554 119.843 254.507 119.796 254.45C119.748 254.393 119.713 254.327 119.693 254.257C119.672 254.186 119.667 254.113 119.677 254.04C119.686 253.968 119.711 253.898 119.75 253.835L125.985 243.111C126.064 242.991 126.188 242.906 126.331 242.871C126.475 242.837 126.626 242.857 126.755 242.926C126.883 242.996 126.979 243.11 127.023 243.245C127.067 243.38 127.055 243.527 126.989 243.654L120.755 254.378C120.705 254.463 120.633 254.534 120.546 254.585C120.459 254.635 120.36 254.663 120.258 254.666Z" fill="#263238"/>
<path d="M170.889 165.839C171.165 165.169 171.606 164.58 172.166 164.131C172.726 163.682 173.386 163.389 174.08 163.281C174.775 163.173 175.48 163.253 176.124 163.514C176.769 163.775 177.331 164.207 177.754 164.768L228.992 231.968C229.327 232.387 229.575 232.873 229.722 233.398C229.868 233.923 229.911 234.475 229.847 235.023C229.783 235.571 229.613 236.104 229.348 236.59C229.083 237.076 228.728 237.505 228.304 237.852C227.879 238.2 227.394 238.458 226.877 238.613C226.36 238.768 225.821 238.815 225.291 238.753C224.762 238.691 224.253 238.52 223.795 238.25C223.337 237.981 222.938 237.618 222.623 237.184L171.384 169.984C170.95 169.412 170.675 168.726 170.587 167.997C170.5 167.268 170.604 166.523 170.889 165.839Z" fill="#263238"/>
<path d="M178.241 165.048C178.241 166.234 177.874 167.393 177.188 168.378C176.502 169.364 175.526 170.132 174.385 170.586C173.243 171.039 171.988 171.158 170.776 170.927C169.564 170.696 168.451 170.125 167.578 169.287C166.704 168.448 166.109 167.38 165.868 166.218C165.627 165.055 165.751 163.85 166.224 162.755C166.697 161.659 167.497 160.723 168.524 160.065C169.551 159.406 170.759 159.055 171.995 159.055C173.651 159.055 175.24 159.686 176.411 160.81C177.583 161.934 178.241 163.459 178.241 165.048V165.048Z" fill="#263238"/>
<path opacity="0.2" d="M171.994 168.383C171.309 168.383 170.64 168.188 170.07 167.823C169.501 167.458 169.057 166.939 168.794 166.331C168.532 165.724 168.464 165.056 168.597 164.411C168.731 163.766 169.061 163.174 169.545 162.709C170.03 162.244 170.647 161.928 171.319 161.8C171.991 161.671 172.687 161.737 173.32 161.989C173.953 162.24 174.494 162.666 174.874 163.213C175.255 163.759 175.458 164.402 175.458 165.059C175.458 165.941 175.093 166.786 174.444 167.41C173.794 168.033 172.913 168.383 171.994 168.383Z" fill="white"/>
<path d="M226.777 233.898C226.691 234.115 226.555 234.309 226.381 234.462C226.106 234.701 225.753 234.819 225.401 234.792C225.048 234.765 224.725 234.594 224.501 234.317L215.398 222.9C215.268 222.766 215.168 222.606 215.103 222.428C215.039 222.251 215.011 222.06 215.022 221.869C215.033 221.677 215.083 221.49 215.168 221.317C215.252 221.144 215.371 220.991 215.515 220.866C215.659 220.742 215.826 220.649 216.005 220.593C216.184 220.538 216.372 220.521 216.555 220.544C216.739 220.567 216.915 220.63 217.072 220.728C217.229 220.826 217.363 220.957 217.467 221.113L226.601 232.48C226.754 232.673 226.852 232.908 226.883 233.158C226.914 233.408 226.877 233.664 226.777 233.898V233.898Z" fill="#8A8E7C"/>
</svg>
