<svg width="16" height="30" viewBox="0 0 16 30" fill="none" xmlns="http://www.w3.org/2000/svg">
<path d="M10.9349 0.25119L5.06516 3.16144V5.37419C7.02173 4.40407 8.97829 3.43375 10.9349 2.46369V0.25119ZM11.343 3.51694L5.38054 6.47319L9.32029 11.3568L15.2826 8.40032L11.343 3.51694ZM4.34835 6.98519L2.2401 8.03044H5.1916L4.34835 6.98519ZM2.96591 9.15532L7.44185 10.8199L6.0991 9.15532H2.96591ZM0.4021 9.40207V26.6991L8.60335 29.7488V12.4519L0.4021 9.40207ZM15.598 9.49957C13.6413 10.4696 11.6848 11.4398 9.72822 12.41V29.6514L15.598 26.741V9.49957ZM3.03135 16.0291C3.03135 16.0291 2.0751 16.9719 2.41329 17.5418C2.67372 17.9806 3.78135 17.8804 3.78135 17.8804L4.75316 18.1209C4.75316 18.1209 5.86066 18.7693 6.1211 18.4594C6.45922 18.0569 5.50316 16.6408 5.50316 16.6408C5.50316 16.6408 7.74754 18.7341 7.35704 19.5982C7.1606 20.0329 5.8121 19.4659 5.8121 19.4659C5.8121 19.4659 6.15554 19.9165 6.1211 20.1252C6.05854 20.5041 5.26022 20.7449 5.26022 20.7449C5.26022 20.7449 5.32966 22.0724 4.88522 22.3179C4.56354 22.4956 3.97097 22.349 3.64929 22.012C3.20485 21.5465 3.27429 20.2535 3.27429 20.2535C3.27429 20.2535 2.47585 19.6174 2.41329 19.2076C2.37891 18.9819 2.72229 18.7011 2.72229 18.7011C2.72229 18.7011 1.37385 18.6007 1.17747 18.0688C0.787037 17.0114 3.03135 16.0291 3.03135 16.0291Z" fill="#715573"/>
</svg>
